{
    "asset": { "version": "2.0", "generator": "LCDLLN test" },
    "scene": 0,
    "scenes": [{ "name": "zone_0", "nodes": [0] }],
    "nodes": [
        { "name": "test_mesh", "mesh": 0 }
    ],
    "meshes": [
        {
            "name": "test_mesh",
            "primitives": [
                {
                    "attributes": { "POSITION": 0 },
                    "indices": 1,
                    "material": 0,
                    "mode": 4
                }
            ]
        }
    ],
    "materials": [
        { "name": "test_material", "pbrMetallicRoughness": { "baseColorFactor": [1,1,1,1] } }
    ],
    "accessors": [
        {
            "bufferView": 0, "componentType": 5126, "count": 4,
            "type": "VEC3",
            "min": [0,0,0], "max": [1,0,1]
        },
        {
            "bufferView": 1, "componentType": 5123, "count": 6,
            "type": "SCALAR"
        }
    ],
    "bufferViews": [
        { "buffer": 0, "byteOffset": 0,  "byteLength": 48 },
        { "buffer": 0, "byteOffset": 48, "byteLength": 12 }
    ],
    "buffers": [
        { "byteLength": 60, "uri": "zone_0.bin" }
    ]
}
