{
	"asset":{
		"generator":"Khronos glTF Blender I/O v5.1.20",
		"version":"2.0"
	},
	"scene":0,
	"scenes":[
		{
			"name":"Scene",
			"nodes":[
				0
			]
		}
	],
	"nodes":[
		{
			"mesh":0,
			"name":"Balcony_Simple_Corner"
		}
	],
	"materials":[
		{
			"doubleSided":true,
			"name":"MI_WoodTrim",
			"pbrMetallicRoughness":{
				"metallicFactor":0
			}
		}
	],
	"meshes":[
		{
			"name":"Cube.113",
			"primitives":[
				{
					"attributes":{
						"POSITION":0,
						"NORMAL":1,
						"TEXCOORD_0":2
					},
					"indices":3,
					"material":0
				}
			]
		}
	],
	"accessors":[
		{
			"bufferView":0,
			"componentType":5126,
			"count":3456,
			"max":[
				1.1042536497116089,
				1.1247994899749756,
				1.0000005960464478
			],
			"min":[
				-0.9999997615814209,
				-0.10508715361356735,
				-1.1042532920837402
			],
			"type":"VEC3"
		},
		{
			"bufferView":1,
			"componentType":5126,
			"count":3456,
			"type":"VEC3"
		},
		{
			"bufferView":2,
			"componentType":5126,
			"count":3456,
			"type":"VEC2"
		},
		{
			"bufferView":3,
			"componentType":5123,
			"count":6720,
			"type":"SCALAR"
		}
	],
	"bufferViews":[
		{
			"buffer":0,
			"byteLength":41472,
			"byteOffset":0,
			"target":34962
		},
		{
			"buffer":0,
			"byteLength":41472,
			"byteOffset":41472,
			"target":34962
		},
		{
			"buffer":0,
			"byteLength":27648,
			"byteOffset":82944,
			"target":34962
		},
		{
			"buffer":0,
			"byteLength":13440,
			"byteOffset":110592,
			"target":34963
		}
	],
	"buffers":[
		{
			"byteLength":124032,
			"uri":"Balcony_Simple_Corner.bin"
		}
	]
}
