{
	"asset":{
		"generator":"Khronos glTF Blender I/O v5.1.20",
		"version":"2.0"
	},
	"scene":0,
	"scenes":[
		{
			"name":"Scene",
			"nodes":[
				0
			]
		}
	],
	"nodes":[
		{
			"mesh":0,
			"name":"Balcony_Simple_Straight"
		}
	],
	"materials":[
		{
			"doubleSided":true,
			"name":"MI_WoodTrim",
			"pbrMetallicRoughness":{
				"metallicFactor":0
			}
		}
	],
	"meshes":[
		{
			"name":"Cube.076",
			"primitives":[
				{
					"attributes":{
						"POSITION":0,
						"NORMAL":1,
						"TEXCOORD_0":2
					},
					"indices":3,
					"material":0
				}
			]
		}
	],
	"accessors":[
		{
			"bufferView":0,
			"componentType":5126,
			"count":1728,
			"max":[
				1,
				1.1247994899749756,
				1.1042530536651611
			],
			"min":[
				-1.0000001192092896,
				-0.10508717596530914,
				0.8979700207710266
			],
			"type":"VEC3"
		},
		{
			"bufferView":1,
			"componentType":5126,
			"count":1728,
			"type":"VEC3"
		},
		{
			"bufferView":2,
			"componentType":5126,
			"count":1728,
			"type":"VEC2"
		},
		{
			"bufferView":3,
			"componentType":5123,
			"count":3360,
			"type":"SCALAR"
		}
	],
	"bufferViews":[
		{
			"buffer":0,
			"byteLength":20736,
			"byteOffset":0,
			"target":34962
		},
		{
			"buffer":0,
			"byteLength":20736,
			"byteOffset":20736,
			"target":34962
		},
		{
			"buffer":0,
			"byteLength":13824,
			"byteOffset":41472,
			"target":34962
		},
		{
			"buffer":0,
			"byteLength":6720,
			"byteOffset":55296,
			"target":34963
		}
	],
	"buffers":[
		{
			"byteLength":62016,
			"uri":"Balcony_Simple_Straight.bin"
		}
	]
}
