{
	"asset":{
		"generator":"Khronos glTF Blender I/O v5.1.20",
		"version":"2.0"
	},
	"scene":0,
	"scenes":[
		{
			"name":"Scene",
			"nodes":[
				0
			]
		}
	],
	"nodes":[
		{
			"mesh":0,
			"name":"Bush_Common_Flowers"
		}
	],
	"materials":[
		{
			"alphaMode":"BLEND",
			"doubleSided":true,
			"name":"Leaves_NormalTree",
			"pbrMetallicRoughness":{
				"metallicFactor":0
			}
		},
		{
			"alphaMode":"BLEND",
			"doubleSided":true,
			"name":"Flowers",
			"pbrMetallicRoughness":{
				"metallicFactor":0
			}
		}
	],
	"meshes":[
		{
			"name":"tree.009",
			"primitives":[
				{
					"attributes":{
						"POSITION":0,
						"NORMAL":1,
						"TEXCOORD_0":2,
						"COLOR_0":3,
						"COLOR_1":4
					},
					"indices":5,
					"material":0
				},
				{
					"attributes":{
						"POSITION":6,
						"NORMAL":7,
						"TEXCOORD_0":8,
						"COLOR_0":9,
						"COLOR_1":10
					},
					"indices":11,
					"material":1
				}
			]
		}
	],
	"accessors":[
		{
			"bufferView":0,
			"componentType":5126,
			"count":1800,
			"max":[
				0.9913685917854309,
				1.3470909595489502,
				0.9907516837120056
			],
			"min":[
				-0.9234761595726013,
				-0.234694704413414,
				-0.9743891954421997
			],
			"type":"VEC3"
		},
		{
			"bufferView":1,
			"componentType":5126,
			"count":1800,
			"type":"VEC3"
		},
		{
			"bufferView":2,
			"componentType":5126,
			"count":1800,
			"type":"VEC2"
		},
		{
			"bufferView":3,
			"componentType":5121,
			"count":1800,
			"normalized":true,
			"type":"VEC4"
		},
		{
			"bufferView":4,
			"componentType":5123,
			"count":1800,
			"normalized":true,
			"type":"VEC4"
		},
		{
			"bufferView":5,
			"componentType":5123,
			"count":2700,
			"type":"SCALAR"
		},
		{
			"bufferView":6,
			"componentType":5126,
			"count":504,
			"max":[
				0.9718135595321655,
				1.328537940979004,
				0.98771071434021
			],
			"min":[
				-0.7453983426094055,
				0.2586841881275177,
				-0.9251851439476013
			],
			"type":"VEC3"
		},
		{
			"bufferView":7,
			"componentType":5126,
			"count":504,
			"type":"VEC3"
		},
		{
			"bufferView":8,
			"componentType":5126,
			"count":504,
			"type":"VEC2"
		},
		{
			"bufferView":9,
			"componentType":5121,
			"count":504,
			"normalized":true,
			"type":"VEC4"
		},
		{
			"bufferView":10,
			"componentType":5123,
			"count":504,
			"normalized":true,
			"type":"VEC4"
		},
		{
			"bufferView":11,
			"componentType":5123,
			"count":1404,
			"type":"SCALAR"
		}
	],
	"bufferViews":[
		{
			"buffer":0,
			"byteLength":21600,
			"byteOffset":0,
			"target":34962
		},
		{
			"buffer":0,
			"byteLength":21600,
			"byteOffset":21600,
			"target":34962
		},
		{
			"buffer":0,
			"byteLength":14400,
			"byteOffset":43200,
			"target":34962
		},
		{
			"buffer":0,
			"byteLength":7200,
			"byteOffset":57600,
			"target":34962
		},
		{
			"buffer":0,
			"byteLength":14400,
			"byteOffset":64800,
			"target":34962
		},
		{
			"buffer":0,
			"byteLength":5400,
			"byteOffset":79200,
			"target":34963
		},
		{
			"buffer":0,
			"byteLength":6048,
			"byteOffset":84600,
			"target":34962
		},
		{
			"buffer":0,
			"byteLength":6048,
			"byteOffset":90648,
			"target":34962
		},
		{
			"buffer":0,
			"byteLength":4032,
			"byteOffset":96696,
			"target":34962
		},
		{
			"buffer":0,
			"byteLength":2016,
			"byteOffset":100728,
			"target":34962
		},
		{
			"buffer":0,
			"byteLength":4032,
			"byteOffset":102744,
			"target":34962
		},
		{
			"buffer":0,
			"byteLength":2808,
			"byteOffset":106776,
			"target":34963
		}
	],
	"buffers":[
		{
			"byteLength":109584,
			"uri":"Bush_Common_Flowers.bin"
		}
	]
}
