{"asset":{"generator":"Khronos glTF Blender I/O v5.1.20","version":"2.0"},"scene":0,"scenes":[{"name":"Scene","nodes":[0]}],"nodes":[{"mesh":0,"name":"Bush_Common"}],"materials":[{"alphaMode":"BLEND","doubleSided":true,"name":"Leaves_TwistedTree","pbrMetallicRoughness":{"metallicFactor":0,"baseColorTexture":{"index":0}}}],"meshes":[{"name":"tree.008","primitives":[{"attributes":{"POSITION":0,"NORMAL":1,"TEXCOORD_0":2,"COLOR_0":3,"COLOR_1":4},"indices":5,"material":0}]}],"accessors":[{"bufferView":0,"componentType":5126,"count":1800,"max":[0.9913685917854309,1.3470909595489502,0.9907516837120056],"min":[-0.9234761595726013,-0.234694704413414,-0.9743891954421997],"type":"VEC3"},{"bufferView":1,"componentType":5126,"count":1800,"type":"VEC3"},{"bufferView":2,"componentType":5126,"count":1800,"type":"VEC2"},{"bufferView":3,"componentType":5121,"count":1800,"normalized":true,"type":"VEC4"},{"bufferView":4,"componentType":5123,"count":1800,"normalized":true,"type":"VEC4"},{"bufferView":5,"componentType":5123,"count":2700,"type":"SCALAR"}],"bufferViews":[{"buffer":0,"byteLength":21600,"byteOffset":0,"target":34962},{"buffer":0,"byteLength":21600,"byteOffset":21600,"target":34962},{"buffer":0,"byteLength":14400,"byteOffset":43200,"target":34962},{"buffer":0,"byteLength":7200,"byteOffset":57600,"target":34962},{"buffer":0,"byteLength":14400,"byteOffset":64800,"target":34962},{"buffer":0,"byteLength":5400,"byteOffset":79200,"target":34963}],"buffers":[{"byteLength":84600,"uri":"Bush_Common.bin"}],"images":[{"uri":"Leaves_TwistedTree.png"}],"textures":[{"sampler":0,"source":0}],"samplers":[{"magFilter":9729,"minFilter":9987}]}