{
	"asset":{
		"generator":"Khronos glTF Blender I/O v5.1.20",
		"version":"2.0"
	},
	"scene":0,
	"scenes":[
		{
			"name":"Scene",
			"nodes":[
				0
			]
		}
	],
	"nodes":[
		{
			"mesh":0,
			"name":"Clover_1"
		}
	],
	"materials":[
		{
			"alphaMode":"BLEND",
			"doubleSided":true,
			"name":"Leaves",
			"pbrMetallicRoughness":{
				"metallicFactor":0
			}
		}
	],
	"meshes":[
		{
			"name":"Cylinder.018",
			"primitives":[
				{
					"attributes":{
						"POSITION":0,
						"NORMAL":1,
						"TEXCOORD_0":2,
						"COLOR_0":3,
						"COLOR_1":4
					},
					"indices":5,
					"material":0
				}
			]
		}
	],
	"accessors":[
		{
			"bufferView":0,
			"componentType":5126,
			"count":267,
			"max":[
				0.2939910888671875,
				1.131940245628357,
				0.36432379484176636
			],
			"min":[
				-0.5022982358932495,
				-0.012792191468179226,
				-0.39956197142601013
			],
			"type":"VEC3"
		},
		{
			"bufferView":1,
			"componentType":5126,
			"count":267,
			"type":"VEC3"
		},
		{
			"bufferView":2,
			"componentType":5126,
			"count":267,
			"type":"VEC2"
		},
		{
			"bufferView":3,
			"componentType":5121,
			"count":267,
			"normalized":true,
			"type":"VEC4"
		},
		{
			"bufferView":4,
			"componentType":5123,
			"count":267,
			"normalized":true,
			"type":"VEC4"
		},
		{
			"bufferView":5,
			"componentType":5123,
			"count":1137,
			"type":"SCALAR"
		}
	],
	"bufferViews":[
		{
			"buffer":0,
			"byteLength":3204,
			"byteOffset":0,
			"target":34962
		},
		{
			"buffer":0,
			"byteLength":3204,
			"byteOffset":3204,
			"target":34962
		},
		{
			"buffer":0,
			"byteLength":2136,
			"byteOffset":6408,
			"target":34962
		},
		{
			"buffer":0,
			"byteLength":1068,
			"byteOffset":8544,
			"target":34962
		},
		{
			"buffer":0,
			"byteLength":2136,
			"byteOffset":9612,
			"target":34962
		},
		{
			"buffer":0,
			"byteLength":2274,
			"byteOffset":11748,
			"target":34963
		}
	],
	"buffers":[
		{
			"byteLength":14024,
			"uri":"Clover_1.bin"
		}
	]
}
