{"asset":{"generator":"Khronos glTF Blender I/O v5.1.20","version":"2.0"},"scene":0,"scenes":[{"name":"Scene","nodes":[0]}],"nodes":[{"mesh":0,"name":"Clover_2"}],"materials":[{"alphaMode":"BLEND","doubleSided":true,"name":"Leaves","pbrMetallicRoughness":{"metallicFactor":0,"baseColorTexture":{"index":0}}}],"meshes":[{"name":"Cylinder.002","primitives":[{"attributes":{"POSITION":0,"NORMAL":1,"TEXCOORD_0":2,"COLOR_0":3,"COLOR_1":4},"indices":5,"material":0}]}],"accessors":[{"bufferView":0,"componentType":5126,"count":433,"max":[0.34883004426956177,1.261434555053711,0.36432382464408875],"min":[-0.5022982358932495,-0.0023507503792643547,-0.47231054306030273],"type":"VEC3"},{"bufferView":1,"componentType":5126,"count":433,"type":"VEC3"},{"bufferView":2,"componentType":5126,"count":433,"type":"VEC2"},{"bufferView":3,"componentType":5121,"count":433,"normalized":true,"type":"VEC4"},{"bufferView":4,"componentType":5123,"count":433,"normalized":true,"type":"VEC4"},{"bufferView":5,"componentType":5123,"count":1845,"type":"SCALAR"}],"bufferViews":[{"buffer":0,"byteLength":5196,"byteOffset":0,"target":34962},{"buffer":0,"byteLength":5196,"byteOffset":5196,"target":34962},{"buffer":0,"byteLength":3464,"byteOffset":10392,"target":34962},{"buffer":0,"byteLength":1732,"byteOffset":13856,"target":34962},{"buffer":0,"byteLength":3464,"byteOffset":15588,"target":34962},{"buffer":0,"byteLength":3690,"byteOffset":19052,"target":34963}],"buffers":[{"byteLength":22744,"uri":"Clover_2.bin"}],"images":[{"uri":"Leaves.png"}],"textures":[{"sampler":0,"source":0}],"samplers":[{"magFilter":9729,"minFilter":9987}]}