{"asset":{"generator":"Khronos glTF Blender I/O v5.1.20","version":"2.0"},"scene":0,"scenes":[{"name":"Scene","nodes":[0]}],"nodes":[{"mesh":0,"name":"CommonTree_5"}],"materials":[{"doubleSided":true,"name":"Bark_NormalTree","pbrMetallicRoughness":{"metallicFactor":0,"baseColorTexture":{"index":0}},"normalTexture":{"index":1}},{"alphaMode":"BLEND","doubleSided":true,"name":"Leaves_NormalTree","pbrMetallicRoughness":{"metallicFactor":0,"baseColorTexture":{"index":2}}}],"meshes":[{"name":"tree.027","primitives":[{"attributes":{"POSITION":0,"NORMAL":1,"TEXCOORD_0":2,"COLOR_0":3,"COLOR_1":4},"indices":5,"material":0},{"attributes":{"POSITION":6,"NORMAL":7,"TEXCOORD_0":8,"COLOR_0":9,"COLOR_1":10},"indices":11,"material":1}]}],"accessors":[{"bufferView":0,"componentType":5126,"count":1190,"max":[0.9063012599945068,5.4537034034729,0.8049076795578003],"min":[-0.8957228064537048,-0.24277201294898987,-0.920511782169342],"type":"VEC3"},{"bufferView":1,"componentType":5126,"count":1190,"type":"VEC3"},{"bufferView":2,"componentType":5126,"count":1190,"type":"VEC2"},{"bufferView":3,"componentType":5121,"count":1190,"normalized":true,"type":"VEC4"},{"bufferView":4,"componentType":5123,"count":1190,"normalized":true,"type":"VEC4"},{"bufferView":5,"componentType":5123,"count":5646,"type":"SCALAR"},{"bufferView":6,"componentType":5126,"count":2600,"max":[1.7588107585906982,6.763467788696289,2.057202100753784],"min":[-1.912354588508606,2.356473684310913,-2.162447929382324],"type":"VEC3"},{"bufferView":7,"componentType":5126,"count":2600,"type":"VEC3"},{"bufferView":8,"componentType":5126,"count":2600,"type":"VEC2"},{"bufferView":9,"componentType":5121,"count":2600,"normalized":true,"type":"VEC4"},{"bufferView":10,"componentType":5123,"count":2600,"normalized":true,"type":"VEC4"},{"bufferView":11,"componentType":5123,"count":3900,"type":"SCALAR"}],"bufferViews":[{"buffer":0,"byteLength":14280,"byteOffset":0,"target":34962},{"buffer":0,"byteLength":14280,"byteOffset":14280,"target":34962},{"buffer":0,"byteLength":9520,"byteOffset":28560,"target":34962},{"buffer":0,"byteLength":4760,"byteOffset":38080,"target":34962},{"buffer":0,"byteLength":9520,"byteOffset":42840,"target":34962},{"buffer":0,"byteLength":11292,"byteOffset":52360,"target":34963},{"buffer":0,"byteLength":31200,"byteOffset":63652,"target":34962},{"buffer":0,"byteLength":31200,"byteOffset":94852,"target":34962},{"buffer":0,"byteLength":20800,"byteOffset":126052,"target":34962},{"buffer":0,"byteLength":10400,"byteOffset":146852,"target":34962},{"buffer":0,"byteLength":20800,"byteOffset":157252,"target":34962},{"buffer":0,"byteLength":7800,"byteOffset":178052,"target":34963}],"buffers":[{"byteLength":185852,"uri":"CommonTree_5.bin"}],"images":[{"uri":"Bark_NormalTree.png"},{"uri":"Bark_NormalTree_Normal.png"},{"uri":"Leaves_NormalTree.png"}],"textures":[{"sampler":0,"source":0},{"sampler":0,"source":1},{"sampler":0,"source":2}],"samplers":[{"magFilter":9729,"minFilter":9987}]}