{
	"asset":{
		"generator":"Khronos glTF Blender I/O v5.1.20",
		"version":"2.0"
	},
	"scene":0,
	"scenes":[
		{
			"name":"Scene",
			"nodes":[
				0
			]
		}
	],
	"nodes":[
		{
			"mesh":0,
			"name":"CommonTree_4"
		}
	],
	"materials":[
		{
			"doubleSided":true,
			"name":"Bark_NormalTree",
			"pbrMetallicRoughness":{
				"metallicFactor":0
			}
		},
		{
			"alphaMode":"BLEND",
			"doubleSided":true,
			"name":"Leaves_NormalTree",
			"pbrMetallicRoughness":{
				"metallicFactor":0
			}
		}
	],
	"meshes":[
		{
			"name":"tree.026",
			"primitives":[
				{
					"attributes":{
						"POSITION":0,
						"NORMAL":1,
						"TEXCOORD_0":2,
						"COLOR_0":3,
						"COLOR_1":4
					},
					"indices":5,
					"material":0
				},
				{
					"attributes":{
						"POSITION":6,
						"NORMAL":7,
						"TEXCOORD_0":8,
						"COLOR_0":9,
						"COLOR_1":10
					},
					"indices":11,
					"material":1
				}
			]
		}
	],
	"accessors":[
		{
			"bufferView":0,
			"componentType":5126,
			"count":2106,
			"max":[
				1.236419439315796,
				7.957448959350586,
				1.0542998313903809
			],
			"min":[
				-1.167366862297058,
				-0.24277201294898987,
				-1.212726354598999
			],
			"type":"VEC3"
		},
		{
			"bufferView":1,
			"componentType":5126,
			"count":2106,
			"type":"VEC3"
		},
		{
			"bufferView":2,
			"componentType":5126,
			"count":2106,
			"type":"VEC2"
		},
		{
			"bufferView":3,
			"componentType":5121,
			"count":2106,
			"normalized":true,
			"type":"VEC4"
		},
		{
			"bufferView":4,
			"componentType":5123,
			"count":2106,
			"normalized":true,
			"type":"VEC4"
		},
		{
			"bufferView":5,
			"componentType":5123,
			"count":9840,
			"type":"SCALAR"
		},
		{
			"bufferView":6,
			"componentType":5126,
			"count":1572,
			"max":[
				2.028430461883545,
				9.195609092712402,
				1.6757631301879883
			],
			"min":[
				-1.7970952987670898,
				5.8085174560546875,
				-2.0796103477478027
			],
			"type":"VEC3"
		},
		{
			"bufferView":7,
			"componentType":5126,
			"count":1572,
			"type":"VEC3"
		},
		{
			"bufferView":8,
			"componentType":5126,
			"count":1572,
			"type":"VEC2"
		},
		{
			"bufferView":9,
			"componentType":5121,
			"count":1572,
			"normalized":true,
			"type":"VEC4"
		},
		{
			"bufferView":10,
			"componentType":5123,
			"count":1572,
			"normalized":true,
			"type":"VEC4"
		},
		{
			"bufferView":11,
			"componentType":5123,
			"count":2358,
			"type":"SCALAR"
		}
	],
	"bufferViews":[
		{
			"buffer":0,
			"byteLength":25272,
			"byteOffset":0,
			"target":34962
		},
		{
			"buffer":0,
			"byteLength":25272,
			"byteOffset":25272,
			"target":34962
		},
		{
			"buffer":0,
			"byteLength":16848,
			"byteOffset":50544,
			"target":34962
		},
		{
			"buffer":0,
			"byteLength":8424,
			"byteOffset":67392,
			"target":34962
		},
		{
			"buffer":0,
			"byteLength":16848,
			"byteOffset":75816,
			"target":34962
		},
		{
			"buffer":0,
			"byteLength":19680,
			"byteOffset":92664,
			"target":34963
		},
		{
			"buffer":0,
			"byteLength":18864,
			"byteOffset":112344,
			"target":34962
		},
		{
			"buffer":0,
			"byteLength":18864,
			"byteOffset":131208,
			"target":34962
		},
		{
			"buffer":0,
			"byteLength":12576,
			"byteOffset":150072,
			"target":34962
		},
		{
			"buffer":0,
			"byteLength":6288,
			"byteOffset":162648,
			"target":34962
		},
		{
			"buffer":0,
			"byteLength":12576,
			"byteOffset":168936,
			"target":34962
		},
		{
			"buffer":0,
			"byteLength":4716,
			"byteOffset":181512,
			"target":34963
		}
	],
	"buffers":[
		{
			"byteLength":186228,
			"uri":"CommonTree_4.bin"
		}
	]
}
