{"asset":{"generator":"Khronos glTF Blender I/O v5.1.20","version":"2.0"},"scene":0,"scenes":[{"name":"Scene","nodes":[0]}],"nodes":[{"mesh":0,"name":"CommonTree_2"}],"materials":[{"doubleSided":true,"name":"Bark_NormalTree","pbrMetallicRoughness":{"metallicFactor":0,"baseColorTexture":{"index":0}},"normalTexture":{"index":1}},{"alphaMode":"BLEND","doubleSided":true,"name":"Leaves_NormalTree","pbrMetallicRoughness":{"metallicFactor":0,"baseColorTexture":{"index":2}}}],"meshes":[{"name":"tree.024","primitives":[{"attributes":{"POSITION":0,"NORMAL":1,"TEXCOORD_0":2,"COLOR_0":3,"COLOR_1":4},"indices":5,"material":0},{"attributes":{"POSITION":6,"NORMAL":7,"TEXCOORD_0":8,"COLOR_0":9,"COLOR_1":10},"indices":11,"material":1}]}],"accessors":[{"bufferView":0,"componentType":5126,"count":2777,"max":[1.3451228141784668,6.727368354797363,1.5685818195343018],"min":[-1.431023359298706,-0.24277201294898987,-0.9472540616989136],"type":"VEC3"},{"bufferView":1,"componentType":5126,"count":2777,"type":"VEC3"},{"bufferView":2,"componentType":5126,"count":2777,"type":"VEC2"},{"bufferView":3,"componentType":5121,"count":2777,"normalized":true,"type":"VEC4"},{"bufferView":4,"componentType":5123,"count":2777,"normalized":true,"type":"VEC4"},{"bufferView":5,"componentType":5123,"count":12930,"type":"SCALAR"},{"bufferView":6,"componentType":5126,"count":2676,"max":[2.24128794670105,7.400223731994629,2.4243826866149902],"min":[-2.2230136394500732,2.886406183242798,-1.8514697551727295],"type":"VEC3"},{"bufferView":7,"componentType":5126,"count":2676,"type":"VEC3"},{"bufferView":8,"componentType":5126,"count":2676,"type":"VEC2"},{"bufferView":9,"componentType":5121,"count":2676,"normalized":true,"type":"VEC4"},{"bufferView":10,"componentType":5123,"count":2676,"normalized":true,"type":"VEC4"},{"bufferView":11,"componentType":5123,"count":4014,"type":"SCALAR"}],"bufferViews":[{"buffer":0,"byteLength":33324,"byteOffset":0,"target":34962},{"buffer":0,"byteLength":33324,"byteOffset":33324,"target":34962},{"buffer":0,"byteLength":22216,"byteOffset":66648,"target":34962},{"buffer":0,"byteLength":11108,"byteOffset":88864,"target":34962},{"buffer":0,"byteLength":22216,"byteOffset":99972,"target":34962},{"buffer":0,"byteLength":25860,"byteOffset":122188,"target":34963},{"buffer":0,"byteLength":32112,"byteOffset":148048,"target":34962},{"buffer":0,"byteLength":32112,"byteOffset":180160,"target":34962},{"buffer":0,"byteLength":21408,"byteOffset":212272,"target":34962},{"buffer":0,"byteLength":10704,"byteOffset":233680,"target":34962},{"buffer":0,"byteLength":21408,"byteOffset":244384,"target":34962},{"buffer":0,"byteLength":8028,"byteOffset":265792,"target":34963}],"buffers":[{"byteLength":273820,"uri":"CommonTree_2.bin"}],"images":[{"uri":"Bark_NormalTree.png"},{"uri":"Bark_NormalTree_Normal.png"},{"uri":"Leaves_NormalTree.png"}],"textures":[{"sampler":0,"source":0},{"sampler":0,"source":1},{"sampler":0,"source":2}],"samplers":[{"magFilter":9729,"minFilter":9987}]}