{"asset":{"generator":"Khronos glTF Blender I/O v5.1.20","version":"2.0"},"scene":0,"scenes":[{"name":"Scene","nodes":[0]}],"nodes":[{"mesh":0,"name":"CommonTree_1"}],"materials":[{"doubleSided":true,"name":"Bark_NormalTree","pbrMetallicRoughness":{"metallicFactor":0,"baseColorTexture":{"index":0}},"normalTexture":{"index":1}},{"alphaMode":"BLEND","doubleSided":true,"name":"Leaves_NormalTree","pbrMetallicRoughness":{"metallicFactor":0,"baseColorTexture":{"index":2}}}],"meshes":[{"name":"tree.023","primitives":[{"attributes":{"POSITION":0,"NORMAL":1,"TEXCOORD_0":2,"COLOR_0":3,"COLOR_1":4},"indices":5,"material":0},{"attributes":{"POSITION":6,"NORMAL":7,"TEXCOORD_0":8,"COLOR_0":9,"COLOR_1":10},"indices":11,"material":1}]}],"accessors":[{"bufferView":0,"componentType":5126,"count":2797,"max":[1.2684564590454102,6.483748912811279,1.3548027276992798],"min":[-1.3591265678405762,-0.24277201294898987,-1.126320481300354],"type":"VEC3"},{"bufferView":1,"componentType":5126,"count":2797,"type":"VEC3"},{"bufferView":2,"componentType":5126,"count":2797,"type":"VEC2"},{"bufferView":3,"componentType":5121,"count":2797,"normalized":true,"type":"VEC4"},{"bufferView":4,"componentType":5123,"count":2797,"normalized":true,"type":"VEC4"},{"bufferView":5,"componentType":5123,"count":13035,"type":"SCALAR"},{"bufferView":6,"componentType":5126,"count":3840,"max":[2.116964101791382,7.022013187408447,2.3531949520111084],"min":[-2.1944587230682373,2.3466193675994873,-2.2245190143585205],"type":"VEC3"},{"bufferView":7,"componentType":5126,"count":3840,"type":"VEC3"},{"bufferView":8,"componentType":5126,"count":3840,"type":"VEC2"},{"bufferView":9,"componentType":5121,"count":3840,"normalized":true,"type":"VEC4"},{"bufferView":10,"componentType":5123,"count":3840,"normalized":true,"type":"VEC4"},{"bufferView":11,"componentType":5123,"count":5760,"type":"SCALAR"}],"bufferViews":[{"buffer":0,"byteLength":33564,"byteOffset":0,"target":34962},{"buffer":0,"byteLength":33564,"byteOffset":33564,"target":34962},{"buffer":0,"byteLength":22376,"byteOffset":67128,"target":34962},{"buffer":0,"byteLength":11188,"byteOffset":89504,"target":34962},{"buffer":0,"byteLength":22376,"byteOffset":100692,"target":34962},{"buffer":0,"byteLength":26070,"byteOffset":123068,"target":34963},{"buffer":0,"byteLength":46080,"byteOffset":149140,"target":34962},{"buffer":0,"byteLength":46080,"byteOffset":195220,"target":34962},{"buffer":0,"byteLength":30720,"byteOffset":241300,"target":34962},{"buffer":0,"byteLength":15360,"byteOffset":272020,"target":34962},{"buffer":0,"byteLength":30720,"byteOffset":287380,"target":34962},{"buffer":0,"byteLength":11520,"byteOffset":318100,"target":34963}],"buffers":[{"byteLength":329620,"uri":"CommonTree_1.bin"}],"images":[{"uri":"Bark_NormalTree.png"},{"uri":"Bark_NormalTree_Normal.png"},{"uri":"Leaves_NormalTree.png"}],"textures":[{"sampler":0,"source":0},{"sampler":0,"source":1},{"sampler":0,"source":2}],"samplers":[{"magFilter":9729,"minFilter":9987}]}