{"asset":{"generator":"Khronos glTF Blender I/O v5.1.20","version":"2.0"},"scene":0,"scenes":[{"name":"Scene","nodes":[0]}],"nodes":[{"mesh":0,"name":"DeadTree_4"}],"materials":[{"doubleSided":true,"name":"Bark_DeadTree","pbrMetallicRoughness":{"metallicFactor":0,"baseColorTexture":{"index":0}},"normalTexture":{"index":1}}],"meshes":[{"name":"tree.018","primitives":[{"attributes":{"POSITION":0,"NORMAL":1,"TEXCOORD_0":2,"COLOR_0":3,"COLOR_1":4},"indices":5,"material":0}]}],"accessors":[{"bufferView":0,"componentType":5126,"count":3994,"max":[4.59817361831665,12.435422897338867,4.133494853973389],"min":[-3.3627684116363525,-0.3355545997619629,-3.5989503860473633],"type":"VEC3"},{"bufferView":1,"componentType":5126,"count":3994,"type":"VEC3"},{"bufferView":2,"componentType":5126,"count":3994,"type":"VEC2"},{"bufferView":3,"componentType":5121,"count":3994,"normalized":true,"type":"VEC4"},{"bufferView":4,"componentType":5123,"count":3994,"normalized":true,"type":"VEC4"},{"bufferView":5,"componentType":5123,"count":17106,"type":"SCALAR"}],"bufferViews":[{"buffer":0,"byteLength":47928,"byteOffset":0,"target":34962},{"buffer":0,"byteLength":47928,"byteOffset":47928,"target":34962},{"buffer":0,"byteLength":31952,"byteOffset":95856,"target":34962},{"buffer":0,"byteLength":15976,"byteOffset":127808,"target":34962},{"buffer":0,"byteLength":31952,"byteOffset":143784,"target":34962},{"buffer":0,"byteLength":34212,"byteOffset":175736,"target":34963}],"buffers":[{"byteLength":209948,"uri":"DeadTree_4.bin"}],"images":[{"uri":"Bark_DeadTree.png"},{"uri":"Bark_DeadTree_Normal.png"}],"textures":[{"sampler":0,"source":0},{"sampler":0,"source":1}],"samplers":[{"magFilter":9729,"minFilter":9987}]}