{"asset":{"generator":"Khronos glTF Blender I/O v5.1.20","version":"2.0"},"scene":0,"scenes":[{"name":"Scene","nodes":[0]}],"nodes":[{"mesh":0,"name":"DeadTree_2"}],"materials":[{"doubleSided":true,"name":"Bark_DeadTree","pbrMetallicRoughness":{"metallicFactor":0,"baseColorTexture":{"index":0}},"normalTexture":{"index":1}}],"meshes":[{"name":"tree.043","primitives":[{"attributes":{"POSITION":0,"NORMAL":1,"TEXCOORD_0":2,"COLOR_0":3,"COLOR_1":4},"indices":5,"material":0}]}],"accessors":[{"bufferView":0,"componentType":5126,"count":4366,"max":[4.397274017333984,11.152676582336426,3.8556599617004395],"min":[-2.332343816757202,-0.3355545997619629,-2.522876024246216],"type":"VEC3"},{"bufferView":1,"componentType":5126,"count":4366,"type":"VEC3"},{"bufferView":2,"componentType":5126,"count":4366,"type":"VEC2"},{"bufferView":3,"componentType":5121,"count":4366,"normalized":true,"type":"VEC4"},{"bufferView":4,"componentType":5123,"count":4366,"normalized":true,"type":"VEC4"},{"bufferView":5,"componentType":5123,"count":19671,"type":"SCALAR"}],"bufferViews":[{"buffer":0,"byteLength":52392,"byteOffset":0,"target":34962},{"buffer":0,"byteLength":52392,"byteOffset":52392,"target":34962},{"buffer":0,"byteLength":34928,"byteOffset":104784,"target":34962},{"buffer":0,"byteLength":17464,"byteOffset":139712,"target":34962},{"buffer":0,"byteLength":34928,"byteOffset":157176,"target":34962},{"buffer":0,"byteLength":39342,"byteOffset":192104,"target":34963}],"buffers":[{"byteLength":231448,"uri":"DeadTree_2.bin"}],"images":[{"uri":"Bark_DeadTree.png"},{"uri":"Bark_DeadTree_Normal.png"}],"textures":[{"sampler":0,"source":0},{"sampler":0,"source":1}],"samplers":[{"magFilter":9729,"minFilter":9987}]}