{"asset":{"generator":"Khronos glTF Blender I/O v5.1.20","version":"2.0"},"scene":0,"scenes":[{"name":"Scene","nodes":[0]}],"nodes":[{"mesh":0,"name":"DeadTree_5"}],"materials":[{"doubleSided":true,"name":"Bark_DeadTree","pbrMetallicRoughness":{"metallicFactor":0,"baseColorTexture":{"index":0}},"normalTexture":{"index":1}}],"meshes":[{"name":"tree.021","primitives":[{"attributes":{"POSITION":0,"NORMAL":1,"TEXCOORD_0":2,"COLOR_0":3,"COLOR_1":4},"indices":5,"material":0}]}],"accessors":[{"bufferView":0,"componentType":5126,"count":3943,"max":[4.385861396789551,16.10182762145996,3.616036891937256],"min":[-3.9705328941345215,-0.3355545997619629,-4.7972307205200195],"type":"VEC3"},{"bufferView":1,"componentType":5126,"count":3943,"type":"VEC3"},{"bufferView":2,"componentType":5126,"count":3943,"type":"VEC2"},{"bufferView":3,"componentType":5121,"count":3943,"normalized":true,"type":"VEC4"},{"bufferView":4,"componentType":5123,"count":3943,"normalized":true,"type":"VEC4"},{"bufferView":5,"componentType":5123,"count":16944,"type":"SCALAR"}],"bufferViews":[{"buffer":0,"byteLength":47316,"byteOffset":0,"target":34962},{"buffer":0,"byteLength":47316,"byteOffset":47316,"target":34962},{"buffer":0,"byteLength":31544,"byteOffset":94632,"target":34962},{"buffer":0,"byteLength":15772,"byteOffset":126176,"target":34962},{"buffer":0,"byteLength":31544,"byteOffset":141948,"target":34962},{"buffer":0,"byteLength":33888,"byteOffset":173492,"target":34963}],"buffers":[{"byteLength":207380,"uri":"DeadTree_5.bin"}],"images":[{"uri":"Bark_DeadTree.png"},{"uri":"Bark_DeadTree_Normal.png"}],"textures":[{"sampler":0,"source":0},{"sampler":0,"source":1}],"samplers":[{"magFilter":9729,"minFilter":9987}]}