{
	"asset":{
		"generator":"Khronos glTF Blender I/O v5.1.20",
		"version":"2.0"
	},
	"scene":0,
	"scenes":[
		{
			"name":"Scene",
			"nodes":[
				0
			]
		}
	],
	"nodes":[
		{
			"mesh":0,
			"name":"Door_4_Round"
		}
	],
	"materials":[
		{
			"doubleSided":true,
			"name":"MI_WoodTrim_Wear",
			"pbrMetallicRoughness":{
				"metallicFactor":0
			}
		},
		{
			"doubleSided":true,
			"name":"MI_MetalOrnaments"
		}
	],
	"meshes":[
		{
			"name":"Cube.195",
			"primitives":[
				{
					"attributes":{
						"POSITION":0,
						"NORMAL":1,
						"TEXCOORD_0":2,
						"TEXCOORD_1":3
					},
					"indices":4,
					"material":0
				},
				{
					"attributes":{
						"POSITION":5,
						"NORMAL":6,
						"TEXCOORD_0":7,
						"TEXCOORD_1":8
					},
					"indices":9,
					"material":1
				}
			]
		}
	],
	"accessors":[
		{
			"bufferView":0,
			"componentType":5126,
			"count":788,
			"max":[
				1.0716030597686768,
				2.3558475971221924,
				0.06528931111097336
			],
			"min":[
				-0.043106503784656525,
				0.033089637756347656,
				-0.06549837440252304
			],
			"type":"VEC3"
		},
		{
			"bufferView":1,
			"componentType":5126,
			"count":788,
			"type":"VEC3"
		},
		{
			"bufferView":2,
			"componentType":5126,
			"count":788,
			"type":"VEC2"
		},
		{
			"bufferView":3,
			"componentType":5126,
			"count":788,
			"type":"VEC2"
		},
		{
			"bufferView":4,
			"componentType":5123,
			"count":1680,
			"type":"SCALAR"
		},
		{
			"bufferView":5,
			"componentType":5126,
			"count":949,
			"max":[
				1.009713888168335,
				2.2858057022094727,
				0.09175863862037659
			],
			"min":[
				0.0035822317004203796,
				0.1197616457939148,
				-0.11758767068386078
			],
			"type":"VEC3"
		},
		{
			"bufferView":6,
			"componentType":5126,
			"count":949,
			"type":"VEC3"
		},
		{
			"bufferView":7,
			"componentType":5126,
			"count":949,
			"type":"VEC2"
		},
		{
			"bufferView":8,
			"componentType":5126,
			"count":949,
			"type":"VEC2"
		},
		{
			"bufferView":9,
			"componentType":5123,
			"count":2004,
			"type":"SCALAR"
		}
	],
	"bufferViews":[
		{
			"buffer":0,
			"byteLength":9456,
			"byteOffset":0,
			"target":34962
		},
		{
			"buffer":0,
			"byteLength":9456,
			"byteOffset":9456,
			"target":34962
		},
		{
			"buffer":0,
			"byteLength":6304,
			"byteOffset":18912,
			"target":34962
		},
		{
			"buffer":0,
			"byteLength":6304,
			"byteOffset":25216,
			"target":34962
		},
		{
			"buffer":0,
			"byteLength":3360,
			"byteOffset":31520,
			"target":34963
		},
		{
			"buffer":0,
			"byteLength":11388,
			"byteOffset":34880,
			"target":34962
		},
		{
			"buffer":0,
			"byteLength":11388,
			"byteOffset":46268,
			"target":34962
		},
		{
			"buffer":0,
			"byteLength":7592,
			"byteOffset":57656,
			"target":34962
		},
		{
			"buffer":0,
			"byteLength":7592,
			"byteOffset":65248,
			"target":34962
		},
		{
			"buffer":0,
			"byteLength":4008,
			"byteOffset":72840,
			"target":34963
		}
	],
	"buffers":[
		{
			"byteLength":76848,
			"uri":"Door_4_Round.bin"
		}
	]
}
