{
	"asset":{
		"generator":"Khronos glTF Blender I/O v5.1.20",
		"version":"2.0"
	},
	"scene":0,
	"scenes":[
		{
			"name":"Scene",
			"nodes":[
				0
			]
		}
	],
	"nodes":[
		{
			"mesh":0,
			"name":"Door_2_Flat"
		}
	],
	"materials":[
		{
			"doubleSided":true,
			"name":"MI_WoodTrim_Wear",
			"pbrMetallicRoughness":{
				"metallicFactor":0
			}
		},
		{
			"doubleSided":true,
			"name":"MI_MetalOrnaments"
		}
	],
	"meshes":[
		{
			"name":"Cube.149",
			"primitives":[
				{
					"attributes":{
						"POSITION":0,
						"NORMAL":1,
						"TEXCOORD_0":2,
						"TEXCOORD_1":3
					},
					"indices":4,
					"material":0
				},
				{
					"attributes":{
						"POSITION":5,
						"NORMAL":6,
						"TEXCOORD_0":7,
						"TEXCOORD_1":8
					},
					"indices":9,
					"material":1
				}
			]
		}
	],
	"accessors":[
		{
			"bufferView":0,
			"componentType":5126,
			"count":590,
			"max":[
				1.0711547136306763,
				2.1400604248046875,
				0.04973819851875305
			],
			"min":[
				-0.04266441613435745,
				0.03962576389312744,
				-0.04973819851875305
			],
			"type":"VEC3"
		},
		{
			"bufferView":1,
			"componentType":5126,
			"count":590,
			"type":"VEC3"
		},
		{
			"bufferView":2,
			"componentType":5126,
			"count":590,
			"type":"VEC2"
		},
		{
			"bufferView":3,
			"componentType":5126,
			"count":590,
			"type":"VEC2"
		},
		{
			"bufferView":4,
			"componentType":5123,
			"count":1404,
			"type":"SCALAR"
		},
		{
			"bufferView":5,
			"componentType":5126,
			"count":3414,
			"max":[
				1.0376418828964233,
				2.0529885292053223,
				0.12721848487854004
			],
			"min":[
				0.022681348025798798,
				0.3381759226322174,
				-0.13368189334869385
			],
			"type":"VEC3"
		},
		{
			"bufferView":6,
			"componentType":5126,
			"count":3414,
			"type":"VEC3"
		},
		{
			"bufferView":7,
			"componentType":5126,
			"count":3414,
			"type":"VEC2"
		},
		{
			"bufferView":8,
			"componentType":5126,
			"count":3414,
			"type":"VEC2"
		},
		{
			"bufferView":9,
			"componentType":5123,
			"count":16692,
			"type":"SCALAR"
		}
	],
	"bufferViews":[
		{
			"buffer":0,
			"byteLength":7080,
			"byteOffset":0,
			"target":34962
		},
		{
			"buffer":0,
			"byteLength":7080,
			"byteOffset":7080,
			"target":34962
		},
		{
			"buffer":0,
			"byteLength":4720,
			"byteOffset":14160,
			"target":34962
		},
		{
			"buffer":0,
			"byteLength":4720,
			"byteOffset":18880,
			"target":34962
		},
		{
			"buffer":0,
			"byteLength":2808,
			"byteOffset":23600,
			"target":34963
		},
		{
			"buffer":0,
			"byteLength":40968,
			"byteOffset":26408,
			"target":34962
		},
		{
			"buffer":0,
			"byteLength":40968,
			"byteOffset":67376,
			"target":34962
		},
		{
			"buffer":0,
			"byteLength":27312,
			"byteOffset":108344,
			"target":34962
		},
		{
			"buffer":0,
			"byteLength":27312,
			"byteOffset":135656,
			"target":34962
		},
		{
			"buffer":0,
			"byteLength":33384,
			"byteOffset":162968,
			"target":34963
		}
	],
	"buffers":[
		{
			"byteLength":196352,
			"uri":"Door_2_Flat.bin"
		}
	]
}
