{
	"asset":{
		"generator":"Khronos glTF Blender I/O v5.1.20",
		"version":"2.0"
	},
	"scene":0,
	"scenes":[
		{
			"name":"Scene",
			"nodes":[
				0
			]
		}
	],
	"nodes":[
		{
			"mesh":0,
			"name":"DoorFrame_Flat_Brick"
		}
	],
	"materials":[
		{
			"doubleSided":true,
			"name":"MI_RockTrim",
			"pbrMetallicRoughness":{
				"metallicFactor":0,
				"roughnessFactor":0.5
			}
		}
	],
	"meshes":[
		{
			"name":"Cube.017_Retopology.014",
			"primitives":[
				{
					"attributes":{
						"POSITION":0,
						"NORMAL":1,
						"TEXCOORD_0":2
					},
					"indices":3,
					"material":0
				}
			]
		}
	],
	"accessors":[
		{
			"bufferView":0,
			"componentType":5126,
			"count":1489,
			"max":[
				0.7864019870758057,
				2.3739662170410156,
				0.19919343292713165
			],
			"min":[
				-0.7882055044174194,
				-0.0016925190575420856,
				-0.2951337397098541
			],
			"type":"VEC3"
		},
		{
			"bufferView":1,
			"componentType":5126,
			"count":1489,
			"type":"VEC3"
		},
		{
			"bufferView":2,
			"componentType":5126,
			"count":1489,
			"type":"VEC2"
		},
		{
			"bufferView":3,
			"componentType":5123,
			"count":5640,
			"type":"SCALAR"
		}
	],
	"bufferViews":[
		{
			"buffer":0,
			"byteLength":17868,
			"byteOffset":0,
			"target":34962
		},
		{
			"buffer":0,
			"byteLength":17868,
			"byteOffset":17868,
			"target":34962
		},
		{
			"buffer":0,
			"byteLength":11912,
			"byteOffset":35736,
			"target":34962
		},
		{
			"buffer":0,
			"byteLength":11280,
			"byteOffset":47648,
			"target":34963
		}
	],
	"buffers":[
		{
			"byteLength":58928,
			"uri":"DoorFrame_Flat_Brick.bin"
		}
	]
}
