{"asset":{"generator":"Khronos glTF Blender I/O v5.1.20","version":"2.0"},"scene":0,"scenes":[{"name":"Scene","nodes":[0]}],"nodes":[{"mesh":0,"name":"Fern_1"}],"materials":[{"alphaMode":"BLEND","doubleSided":true,"name":"Leaves","pbrMetallicRoughness":{"metallicFactor":0,"baseColorTexture":{"index":0}}}],"meshes":[{"name":"Plane.001","primitives":[{"attributes":{"POSITION":0,"NORMAL":1,"TEXCOORD_0":2,"COLOR_0":3,"COLOR_1":4},"indices":5,"material":0}]}],"accessors":[{"bufferView":0,"componentType":5126,"count":243,"max":[4.626213073730469,2.4413082599639893,4.396108150482178],"min":[-4.419975280761719,-0.2474701851606369,-4.091315746307373],"type":"VEC3"},{"bufferView":1,"componentType":5126,"count":243,"type":"VEC3"},{"bufferView":2,"componentType":5126,"count":243,"type":"VEC2"},{"bufferView":3,"componentType":5121,"count":243,"normalized":true,"type":"VEC4"},{"bufferView":4,"componentType":5123,"count":243,"normalized":true,"type":"VEC4"},{"bufferView":5,"componentType":5123,"count":864,"type":"SCALAR"}],"bufferViews":[{"buffer":0,"byteLength":2916,"byteOffset":0,"target":34962},{"buffer":0,"byteLength":2916,"byteOffset":2916,"target":34962},{"buffer":0,"byteLength":1944,"byteOffset":5832,"target":34962},{"buffer":0,"byteLength":972,"byteOffset":7776,"target":34962},{"buffer":0,"byteLength":1944,"byteOffset":8748,"target":34962},{"buffer":0,"byteLength":1728,"byteOffset":10692,"target":34963}],"buffers":[{"byteLength":12420,"uri":"Fern_1.bin"}],"images":[{"uri":"Leaves.png"}],"textures":[{"sampler":0,"source":0}],"samplers":[{"magFilter":9729,"minFilter":9987}]}