{"asset":{"generator":"Khronos glTF Blender I/O v5.1.20","version":"2.0"},"scene":0,"scenes":[{"name":"Scene","nodes":[0]}],"nodes":[{"mesh":0,"name":"Flower_3_Group"}],"materials":[{"alphaMode":"BLEND","doubleSided":true,"name":"Leaves","pbrMetallicRoughness":{"metallicFactor":0,"baseColorTexture":{"index":0}}},{"alphaMode":"BLEND","doubleSided":true,"name":"Flowers","pbrMetallicRoughness":{"metallicFactor":0,"baseColorTexture":{"index":1}}}],"meshes":[{"name":"Plane.021","primitives":[{"attributes":{"POSITION":0,"NORMAL":1,"TEXCOORD_0":2,"COLOR_0":3,"COLOR_1":4},"indices":5,"material":0},{"attributes":{"POSITION":6,"NORMAL":7,"TEXCOORD_0":8,"COLOR_0":9,"COLOR_1":10},"indices":11,"material":1}]}],"accessors":[{"bufferView":0,"componentType":5126,"count":533,"max":[0.7883017063140869,1.7742599248886108,0.7045559287071228],"min":[-0.568230926990509,-0.03458359092473984,-0.5427353382110596],"type":"VEC3"},{"bufferView":1,"componentType":5126,"count":533,"type":"VEC3"},{"bufferView":2,"componentType":5126,"count":533,"type":"VEC2"},{"bufferView":3,"componentType":5121,"count":533,"normalized":true,"type":"VEC4"},{"bufferView":4,"componentType":5123,"count":533,"normalized":true,"type":"VEC4"},{"bufferView":5,"componentType":5123,"count":2130,"type":"SCALAR"},{"bufferView":6,"componentType":5126,"count":48,"max":[0.8748752474784851,2.020251512527466,0.789365291595459],"min":[-0.6136013269424438,1.4516462087631226,-0.8017617464065552],"type":"VEC3"},{"bufferView":7,"componentType":5126,"count":48,"type":"VEC3"},{"bufferView":8,"componentType":5126,"count":48,"type":"VEC2"},{"bufferView":9,"componentType":5121,"count":48,"normalized":true,"type":"VEC4"},{"bufferView":10,"componentType":5123,"count":48,"normalized":true,"type":"VEC4"},{"bufferView":11,"componentType":5123,"count":135,"type":"SCALAR"}],"bufferViews":[{"buffer":0,"byteLength":6396,"byteOffset":0,"target":34962},{"buffer":0,"byteLength":6396,"byteOffset":6396,"target":34962},{"buffer":0,"byteLength":4264,"byteOffset":12792,"target":34962},{"buffer":0,"byteLength":2132,"byteOffset":17056,"target":34962},{"buffer":0,"byteLength":4264,"byteOffset":19188,"target":34962},{"buffer":0,"byteLength":4260,"byteOffset":23452,"target":34963},{"buffer":0,"byteLength":576,"byteOffset":27712,"target":34962},{"buffer":0,"byteLength":576,"byteOffset":28288,"target":34962},{"buffer":0,"byteLength":384,"byteOffset":28864,"target":34962},{"buffer":0,"byteLength":192,"byteOffset":29248,"target":34962},{"buffer":0,"byteLength":384,"byteOffset":29440,"target":34962},{"buffer":0,"byteLength":270,"byteOffset":29824,"target":34963}],"buffers":[{"byteLength":30096,"uri":"Flower_3_Group.bin"}],"images":[{"uri":"Leaves.png"},{"uri":"Flowers.png"}],"textures":[{"sampler":0,"source":0},{"sampler":0,"source":1}],"samplers":[{"magFilter":9729,"minFilter":9987}]}