{
	"asset":{
		"generator":"Khronos glTF Blender I/O v5.1.20",
		"version":"2.0"
	},
	"scene":0,
	"scenes":[
		{
			"name":"Scene",
			"nodes":[
				0
			]
		}
	],
	"nodes":[
		{
			"mesh":0,
			"name":"Flower_3_Single"
		}
	],
	"materials":[
		{
			"alphaMode":"BLEND",
			"doubleSided":true,
			"name":"Leaves",
			"pbrMetallicRoughness":{
				"metallicFactor":0
			}
		},
		{
			"alphaMode":"BLEND",
			"doubleSided":true,
			"name":"Flowers",
			"pbrMetallicRoughness":{
				"metallicFactor":0
			}
		}
	],
	"meshes":[
		{
			"name":"Plane.020",
			"primitives":[
				{
					"attributes":{
						"POSITION":0,
						"NORMAL":1,
						"TEXCOORD_0":2,
						"COLOR_0":3,
						"COLOR_1":4
					},
					"indices":5,
					"material":0
				},
				{
					"attributes":{
						"POSITION":6,
						"NORMAL":7,
						"TEXCOORD_0":8,
						"COLOR_0":9,
						"COLOR_1":10
					},
					"indices":11,
					"material":1
				}
			]
		}
	],
	"accessors":[
		{
			"bufferView":0,
			"componentType":5126,
			"count":211,
			"max":[
				0.42587125301361084,
				1.7716585397720337,
				0.35561174154281616
			],
			"min":[
				-0.48073863983154297,
				-0.018326954916119576,
				-0.520720362663269
			],
			"type":"VEC3"
		},
		{
			"bufferView":1,
			"componentType":5126,
			"count":211,
			"type":"VEC3"
		},
		{
			"bufferView":2,
			"componentType":5126,
			"count":211,
			"type":"VEC2"
		},
		{
			"bufferView":3,
			"componentType":5121,
			"count":211,
			"normalized":true,
			"type":"VEC4"
		},
		{
			"bufferView":4,
			"componentType":5123,
			"count":211,
			"normalized":true,
			"type":"VEC4"
		},
		{
			"bufferView":5,
			"componentType":5123,
			"count":810,
			"type":"SCALAR"
		},
		{
			"bufferView":6,
			"componentType":5126,
			"count":16,
			"max":[
				0.42078328132629395,
				2.0498666763305664,
				0.3568156957626343
			],
			"min":[
				-0.27247604727745056,
				1.755362868309021,
				-0.3710358142852783
			],
			"type":"VEC3"
		},
		{
			"bufferView":7,
			"componentType":5126,
			"count":16,
			"type":"VEC3"
		},
		{
			"bufferView":8,
			"componentType":5126,
			"count":16,
			"type":"VEC2"
		},
		{
			"bufferView":9,
			"componentType":5121,
			"count":16,
			"normalized":true,
			"type":"VEC4"
		},
		{
			"bufferView":10,
			"componentType":5123,
			"count":16,
			"normalized":true,
			"type":"VEC4"
		},
		{
			"bufferView":11,
			"componentType":5123,
			"count":45,
			"type":"SCALAR"
		}
	],
	"bufferViews":[
		{
			"buffer":0,
			"byteLength":2532,
			"byteOffset":0,
			"target":34962
		},
		{
			"buffer":0,
			"byteLength":2532,
			"byteOffset":2532,
			"target":34962
		},
		{
			"buffer":0,
			"byteLength":1688,
			"byteOffset":5064,
			"target":34962
		},
		{
			"buffer":0,
			"byteLength":844,
			"byteOffset":6752,
			"target":34962
		},
		{
			"buffer":0,
			"byteLength":1688,
			"byteOffset":7596,
			"target":34962
		},
		{
			"buffer":0,
			"byteLength":1620,
			"byteOffset":9284,
			"target":34963
		},
		{
			"buffer":0,
			"byteLength":192,
			"byteOffset":10904,
			"target":34962
		},
		{
			"buffer":0,
			"byteLength":192,
			"byteOffset":11096,
			"target":34962
		},
		{
			"buffer":0,
			"byteLength":128,
			"byteOffset":11288,
			"target":34962
		},
		{
			"buffer":0,
			"byteLength":64,
			"byteOffset":11416,
			"target":34962
		},
		{
			"buffer":0,
			"byteLength":128,
			"byteOffset":11480,
			"target":34962
		},
		{
			"buffer":0,
			"byteLength":90,
			"byteOffset":11608,
			"target":34963
		}
	],
	"buffers":[
		{
			"byteLength":11700,
			"uri":"Flower_3_Single.bin"
		}
	]
}
