{
	"asset":{
		"generator":"Khronos glTF Blender I/O v5.1.20",
		"version":"2.0"
	},
	"scene":0,
	"scenes":[
		{
			"name":"Scene",
			"nodes":[
				0
			]
		}
	],
	"nodes":[
		{
			"mesh":0,
			"name":"Flower_4_Single"
		}
	],
	"materials":[
		{
			"alphaMode":"BLEND",
			"doubleSided":true,
			"name":"Leaves",
			"pbrMetallicRoughness":{
				"metallicFactor":0
			}
		},
		{
			"alphaMode":"BLEND",
			"doubleSided":true,
			"name":"Flowers",
			"pbrMetallicRoughness":{
				"metallicFactor":0
			}
		}
	],
	"meshes":[
		{
			"name":"Plane.001",
			"primitives":[
				{
					"attributes":{
						"POSITION":0,
						"NORMAL":1,
						"TEXCOORD_0":2,
						"COLOR_0":3,
						"COLOR_1":4
					},
					"indices":5,
					"material":0
				},
				{
					"attributes":{
						"POSITION":6,
						"NORMAL":7,
						"TEXCOORD_0":8,
						"COLOR_0":9,
						"COLOR_1":10
					},
					"indices":11,
					"material":1
				}
			]
		}
	],
	"accessors":[
		{
			"bufferView":0,
			"componentType":5126,
			"count":99,
			"max":[
				0.56728196144104,
				2.2943310737609863,
				0.21159152686595917
			],
			"min":[
				-0.5050064325332642,
				-0.03043048270046711,
				-0.3631875216960907
			],
			"type":"VEC3"
		},
		{
			"bufferView":1,
			"componentType":5126,
			"count":99,
			"type":"VEC3"
		},
		{
			"bufferView":2,
			"componentType":5126,
			"count":99,
			"type":"VEC2"
		},
		{
			"bufferView":3,
			"componentType":5121,
			"count":99,
			"normalized":true,
			"type":"VEC4"
		},
		{
			"bufferView":4,
			"componentType":5123,
			"count":99,
			"normalized":true,
			"type":"VEC4"
		},
		{
			"bufferView":5,
			"componentType":5123,
			"count":486,
			"type":"SCALAR"
		},
		{
			"bufferView":6,
			"componentType":5126,
			"count":400,
			"max":[
				0.3805691599845886,
				2.388728618621826,
				0.37106218934059143
			],
			"min":[
				-0.39627349376678467,
				1.1264549493789673,
				-0.40180256962776184
			],
			"type":"VEC3"
		},
		{
			"bufferView":7,
			"componentType":5126,
			"count":400,
			"type":"VEC3"
		},
		{
			"bufferView":8,
			"componentType":5126,
			"count":400,
			"type":"VEC2"
		},
		{
			"bufferView":9,
			"componentType":5121,
			"count":400,
			"normalized":true,
			"type":"VEC4"
		},
		{
			"bufferView":10,
			"componentType":5123,
			"count":400,
			"normalized":true,
			"type":"VEC4"
		},
		{
			"bufferView":11,
			"componentType":5123,
			"count":1440,
			"type":"SCALAR"
		}
	],
	"bufferViews":[
		{
			"buffer":0,
			"byteLength":1188,
			"byteOffset":0,
			"target":34962
		},
		{
			"buffer":0,
			"byteLength":1188,
			"byteOffset":1188,
			"target":34962
		},
		{
			"buffer":0,
			"byteLength":792,
			"byteOffset":2376,
			"target":34962
		},
		{
			"buffer":0,
			"byteLength":396,
			"byteOffset":3168,
			"target":34962
		},
		{
			"buffer":0,
			"byteLength":792,
			"byteOffset":3564,
			"target":34962
		},
		{
			"buffer":0,
			"byteLength":972,
			"byteOffset":4356,
			"target":34963
		},
		{
			"buffer":0,
			"byteLength":4800,
			"byteOffset":5328,
			"target":34962
		},
		{
			"buffer":0,
			"byteLength":4800,
			"byteOffset":10128,
			"target":34962
		},
		{
			"buffer":0,
			"byteLength":3200,
			"byteOffset":14928,
			"target":34962
		},
		{
			"buffer":0,
			"byteLength":1600,
			"byteOffset":18128,
			"target":34962
		},
		{
			"buffer":0,
			"byteLength":3200,
			"byteOffset":19728,
			"target":34962
		},
		{
			"buffer":0,
			"byteLength":2880,
			"byteOffset":22928,
			"target":34963
		}
	],
	"buffers":[
		{
			"byteLength":25808,
			"uri":"Flower_4_Single.bin"
		}
	]
}
