{
	"asset":{
		"generator":"Khronos glTF Blender I/O v5.1.20",
		"version":"2.0"
	},
	"scene":0,
	"scenes":[
		{
			"name":"Scene",
			"nodes":[
				0
			]
		}
	],
	"nodes":[
		{
			"mesh":0,
			"name":"Flower_4_Group"
		}
	],
	"materials":[
		{
			"alphaMode":"BLEND",
			"doubleSided":true,
			"name":"Leaves",
			"pbrMetallicRoughness":{
				"metallicFactor":0
			}
		},
		{
			"alphaMode":"BLEND",
			"doubleSided":true,
			"name":"Flowers",
			"pbrMetallicRoughness":{
				"metallicFactor":0
			}
		}
	],
	"meshes":[
		{
			"name":"Plane.003",
			"primitives":[
				{
					"attributes":{
						"POSITION":0,
						"NORMAL":1,
						"TEXCOORD_0":2,
						"COLOR_0":3,
						"COLOR_1":4
					},
					"indices":5,
					"material":0
				},
				{
					"attributes":{
						"POSITION":6,
						"NORMAL":7,
						"TEXCOORD_0":8,
						"COLOR_0":9,
						"COLOR_1":10
					},
					"indices":11,
					"material":1
				}
			]
		}
	],
	"accessors":[
		{
			"bufferView":0,
			"componentType":5126,
			"count":302,
			"max":[
				0.6255365610122681,
				2.2943496704101562,
				0.5279141068458557
			],
			"min":[
				-0.7901612520217896,
				-0.05699761211872101,
				-0.6181322932243347
			],
			"type":"VEC3"
		},
		{
			"bufferView":1,
			"componentType":5126,
			"count":302,
			"type":"VEC3"
		},
		{
			"bufferView":2,
			"componentType":5126,
			"count":302,
			"type":"VEC2"
		},
		{
			"bufferView":3,
			"componentType":5121,
			"count":302,
			"normalized":true,
			"type":"VEC4"
		},
		{
			"bufferView":4,
			"componentType":5123,
			"count":302,
			"normalized":true,
			"type":"VEC4"
		},
		{
			"bufferView":5,
			"componentType":5123,
			"count":1470,
			"type":"SCALAR"
		},
		{
			"bufferView":6,
			"componentType":5126,
			"count":1000,
			"max":[
				0.8491399884223938,
				2.4297707080841064,
				0.7313783168792725
			],
			"min":[
				-0.9313857555389404,
				1.122023582458496,
				-0.6361504197120667
			],
			"type":"VEC3"
		},
		{
			"bufferView":7,
			"componentType":5126,
			"count":1000,
			"type":"VEC3"
		},
		{
			"bufferView":8,
			"componentType":5126,
			"count":1000,
			"type":"VEC2"
		},
		{
			"bufferView":9,
			"componentType":5121,
			"count":1000,
			"normalized":true,
			"type":"VEC4"
		},
		{
			"bufferView":10,
			"componentType":5123,
			"count":1000,
			"normalized":true,
			"type":"VEC4"
		},
		{
			"bufferView":11,
			"componentType":5123,
			"count":3600,
			"type":"SCALAR"
		}
	],
	"bufferViews":[
		{
			"buffer":0,
			"byteLength":3624,
			"byteOffset":0,
			"target":34962
		},
		{
			"buffer":0,
			"byteLength":3624,
			"byteOffset":3624,
			"target":34962
		},
		{
			"buffer":0,
			"byteLength":2416,
			"byteOffset":7248,
			"target":34962
		},
		{
			"buffer":0,
			"byteLength":1208,
			"byteOffset":9664,
			"target":34962
		},
		{
			"buffer":0,
			"byteLength":2416,
			"byteOffset":10872,
			"target":34962
		},
		{
			"buffer":0,
			"byteLength":2940,
			"byteOffset":13288,
			"target":34963
		},
		{
			"buffer":0,
			"byteLength":12000,
			"byteOffset":16228,
			"target":34962
		},
		{
			"buffer":0,
			"byteLength":12000,
			"byteOffset":28228,
			"target":34962
		},
		{
			"buffer":0,
			"byteLength":8000,
			"byteOffset":40228,
			"target":34962
		},
		{
			"buffer":0,
			"byteLength":4000,
			"byteOffset":48228,
			"target":34962
		},
		{
			"buffer":0,
			"byteLength":8000,
			"byteOffset":52228,
			"target":34962
		},
		{
			"buffer":0,
			"byteLength":7200,
			"byteOffset":60228,
			"target":34963
		}
	],
	"buffers":[
		{
			"byteLength":67428,
			"uri":"Flower_4_Group.bin"
		}
	]
}
