{
	"asset":{
		"generator":"Khronos glTF Blender I/O v5.1.20",
		"version":"2.0"
	},
	"scene":0,
	"scenes":[
		{
			"name":"Scene",
			"nodes":[
				0
			]
		}
	],
	"nodes":[
		{
			"mesh":0,
			"name":"Grass_Common_Tall"
		}
	],
	"materials":[
		{
			"doubleSided":true,
			"name":"Grass",
			"pbrMetallicRoughness":{
				"metallicFactor":0
			}
		}
	],
	"meshes":[
		{
			"name":"Plane.013",
			"primitives":[
				{
					"attributes":{
						"POSITION":0,
						"NORMAL":1,
						"TEXCOORD_0":2,
						"COLOR_0":3,
						"COLOR_1":4
					},
					"indices":5,
					"material":0
				}
			]
		}
	],
	"accessors":[
		{
			"bufferView":0,
			"componentType":5126,
			"count":303,
			"max":[
				0.49152159690856934,
				1.841333031654358,
				0.5140784978866577
			],
			"min":[
				-0.40356767177581787,
				-0.031362250447273254,
				-0.47903335094451904
			],
			"type":"VEC3"
		},
		{
			"bufferView":1,
			"componentType":5126,
			"count":303,
			"type":"VEC3"
		},
		{
			"bufferView":2,
			"componentType":5126,
			"count":303,
			"type":"VEC2"
		},
		{
			"bufferView":3,
			"componentType":5121,
			"count":303,
			"normalized":true,
			"type":"VEC4"
		},
		{
			"bufferView":4,
			"componentType":5123,
			"count":303,
			"normalized":true,
			"type":"VEC4"
		},
		{
			"bufferView":5,
			"componentType":5123,
			"count":978,
			"type":"SCALAR"
		}
	],
	"bufferViews":[
		{
			"buffer":0,
			"byteLength":3636,
			"byteOffset":0,
			"target":34962
		},
		{
			"buffer":0,
			"byteLength":3636,
			"byteOffset":3636,
			"target":34962
		},
		{
			"buffer":0,
			"byteLength":2424,
			"byteOffset":7272,
			"target":34962
		},
		{
			"buffer":0,
			"byteLength":1212,
			"byteOffset":9696,
			"target":34962
		},
		{
			"buffer":0,
			"byteLength":2424,
			"byteOffset":10908,
			"target":34962
		},
		{
			"buffer":0,
			"byteLength":1956,
			"byteOffset":13332,
			"target":34963
		}
	],
	"buffers":[
		{
			"byteLength":15288,
			"uri":"Grass_Common_Tall.bin"
		}
	]
}
