{
	"asset":{
		"generator":"Khronos glTF Blender I/O v5.1.20",
		"version":"2.0"
	},
	"scene":0,
	"scenes":[
		{
			"name":"Scene",
			"nodes":[
				0
			]
		}
	],
	"nodes":[
		{
			"mesh":0,
			"name":"Grass_Wispy_Tall"
		}
	],
	"materials":[
		{
			"doubleSided":true,
			"name":"Grass",
			"pbrMetallicRoughness":{
				"metallicFactor":0
			}
		}
	],
	"meshes":[
		{
			"name":"Plane.017",
			"primitives":[
				{
					"attributes":{
						"POSITION":0,
						"NORMAL":1,
						"TEXCOORD_0":2,
						"COLOR_0":3,
						"COLOR_1":4
					},
					"indices":5,
					"material":0
				}
			]
		}
	],
	"accessors":[
		{
			"bufferView":0,
			"componentType":5126,
			"count":545,
			"max":[
				0.8008279800415039,
				1.6357505321502686,
				0.7751253247261047
			],
			"min":[
				-0.7392446994781494,
				-0.03605181723833084,
				-0.8185906410217285
			],
			"type":"VEC3"
		},
		{
			"bufferView":1,
			"componentType":5126,
			"count":545,
			"type":"VEC3"
		},
		{
			"bufferView":2,
			"componentType":5126,
			"count":545,
			"type":"VEC2"
		},
		{
			"bufferView":3,
			"componentType":5121,
			"count":545,
			"normalized":true,
			"type":"VEC4"
		},
		{
			"bufferView":4,
			"componentType":5123,
			"count":545,
			"normalized":true,
			"type":"VEC4"
		},
		{
			"bufferView":5,
			"componentType":5123,
			"count":1866,
			"type":"SCALAR"
		}
	],
	"bufferViews":[
		{
			"buffer":0,
			"byteLength":6540,
			"byteOffset":0,
			"target":34962
		},
		{
			"buffer":0,
			"byteLength":6540,
			"byteOffset":6540,
			"target":34962
		},
		{
			"buffer":0,
			"byteLength":4360,
			"byteOffset":13080,
			"target":34962
		},
		{
			"buffer":0,
			"byteLength":2180,
			"byteOffset":17440,
			"target":34962
		},
		{
			"buffer":0,
			"byteLength":4360,
			"byteOffset":19620,
			"target":34962
		},
		{
			"buffer":0,
			"byteLength":3732,
			"byteOffset":23980,
			"target":34963
		}
	],
	"buffers":[
		{
			"byteLength":27712,
			"uri":"Grass_Wispy_Tall.bin"
		}
	]
}
