{
	"asset":{
		"generator":"Khronos glTF Blender I/O v5.1.20",
		"version":"2.0"
	},
	"scene":0,
	"scenes":[
		{
			"name":"Scene",
			"nodes":[
				0
			]
		}
	],
	"nodes":[
		{
			"mesh":0,
			"name":"Overhang_Side_UnevenBrick_Short_L"
		}
	],
	"materials":[
		{
			"doubleSided":true,
			"name":"MI_WoodTrim",
			"pbrMetallicRoughness":{
				"metallicFactor":0
			}
		},
		{
			"doubleSided":true,
			"name":"MI_Plaster",
			"pbrMetallicRoughness":{
				"metallicFactor":0,
				"roughnessFactor":0.5
			}
		},
		{
			"doubleSided":true,
			"name":"MI_UnevenBrick",
			"pbrMetallicRoughness":{
				"metallicFactor":0
			}
		}
	],
	"meshes":[
		{
			"name":"Cube.134",
			"primitives":[
				{
					"attributes":{
						"POSITION":0,
						"NORMAL":1,
						"TEXCOORD_0":2,
						"TEXCOORD_1":3
					},
					"indices":4,
					"material":0
				},
				{
					"attributes":{
						"POSITION":5,
						"NORMAL":6,
						"TEXCOORD_0":7,
						"TEXCOORD_1":8
					},
					"indices":9,
					"material":1
				},
				{
					"attributes":{
						"POSITION":10,
						"NORMAL":11,
						"TEXCOORD_0":12,
						"TEXCOORD_1":13
					},
					"indices":14,
					"material":2
				}
			]
		}
	],
	"accessors":[
		{
			"bufferView":0,
			"componentType":5126,
			"count":342,
			"max":[
				-0.6859644055366516,
				6.116764545440674,
				1.1228351593017578
			],
			"min":[
				-1.1652966737747192,
				-2.384185791015625e-07,
				-0.3140338957309723
			],
			"type":"VEC3"
		},
		{
			"bufferView":1,
			"componentType":5126,
			"count":342,
			"type":"VEC3"
		},
		{
			"bufferView":2,
			"componentType":5126,
			"count":342,
			"type":"VEC2"
		},
		{
			"bufferView":3,
			"componentType":5126,
			"count":342,
			"type":"VEC2"
		},
		{
			"bufferView":4,
			"componentType":5123,
			"count":714,
			"type":"SCALAR"
		},
		{
			"bufferView":5,
			"componentType":5126,
			"count":30,
			"max":[
				-0.7999998331069946,
				6.000000476837158,
				1.0000004768371582
			],
			"min":[
				-0.7999998331069946,
				1.9063254594802856,
				-0.0009438991546630859
			],
			"type":"VEC3"
		},
		{
			"bufferView":6,
			"componentType":5126,
			"count":30,
			"type":"VEC3"
		},
		{
			"bufferView":7,
			"componentType":5126,
			"count":30,
			"type":"VEC2"
		},
		{
			"bufferView":8,
			"componentType":5126,
			"count":30,
			"type":"VEC2"
		},
		{
			"bufferView":9,
			"componentType":5123,
			"count":84,
			"type":"SCALAR"
		},
		{
			"bufferView":10,
			"componentType":5126,
			"count":30,
			"max":[
				-1,
				6.000000476837158,
				1.0000004768371582
			],
			"min":[
				-1,
				1.906325340270996,
				-0.0009438991546630859
			],
			"type":"VEC3"
		},
		{
			"bufferView":11,
			"componentType":5126,
			"count":30,
			"type":"VEC3"
		},
		{
			"bufferView":12,
			"componentType":5126,
			"count":30,
			"type":"VEC2"
		},
		{
			"bufferView":13,
			"componentType":5126,
			"count":30,
			"type":"VEC2"
		},
		{
			"bufferView":14,
			"componentType":5123,
			"count":84,
			"type":"SCALAR"
		}
	],
	"bufferViews":[
		{
			"buffer":0,
			"byteLength":4104,
			"byteOffset":0,
			"target":34962
		},
		{
			"buffer":0,
			"byteLength":4104,
			"byteOffset":4104,
			"target":34962
		},
		{
			"buffer":0,
			"byteLength":2736,
			"byteOffset":8208,
			"target":34962
		},
		{
			"buffer":0,
			"byteLength":2736,
			"byteOffset":10944,
			"target":34962
		},
		{
			"buffer":0,
			"byteLength":1428,
			"byteOffset":13680,
			"target":34963
		},
		{
			"buffer":0,
			"byteLength":360,
			"byteOffset":15108,
			"target":34962
		},
		{
			"buffer":0,
			"byteLength":360,
			"byteOffset":15468,
			"target":34962
		},
		{
			"buffer":0,
			"byteLength":240,
			"byteOffset":15828,
			"target":34962
		},
		{
			"buffer":0,
			"byteLength":240,
			"byteOffset":16068,
			"target":34962
		},
		{
			"buffer":0,
			"byteLength":168,
			"byteOffset":16308,
			"target":34963
		},
		{
			"buffer":0,
			"byteLength":360,
			"byteOffset":16476,
			"target":34962
		},
		{
			"buffer":0,
			"byteLength":360,
			"byteOffset":16836,
			"target":34962
		},
		{
			"buffer":0,
			"byteLength":240,
			"byteOffset":17196,
			"target":34962
		},
		{
			"buffer":0,
			"byteLength":240,
			"byteOffset":17436,
			"target":34962
		},
		{
			"buffer":0,
			"byteLength":168,
			"byteOffset":17676,
			"target":34963
		}
	],
	"buffers":[
		{
			"byteLength":17844,
			"uri":"Overhang_Side_UnevenBrick_Short_L.bin"
		}
	]
}
