{
	"asset":{
		"generator":"Khronos glTF Blender I/O v5.1.20",
		"version":"2.0"
	},
	"scene":0,
	"scenes":[
		{
			"name":"Scene",
			"nodes":[
				0
			]
		}
	],
	"nodes":[
		{
			"mesh":0,
			"name":"Overhang_UnevenBrick_Short"
		}
	],
	"materials":[
		{
			"doubleSided":true,
			"name":"MI_WoodTrim",
			"pbrMetallicRoughness":{
				"metallicFactor":0
			}
		},
		{
			"doubleSided":true,
			"name":"MI_Plaster",
			"pbrMetallicRoughness":{
				"metallicFactor":0,
				"roughnessFactor":0.5
			}
		},
		{
			"doubleSided":true,
			"name":"MI_UnevenBrick",
			"pbrMetallicRoughness":{
				"metallicFactor":0
			}
		}
	],
	"meshes":[
		{
			"name":"Cube.117",
			"primitives":[
				{
					"attributes":{
						"POSITION":0,
						"NORMAL":1,
						"TEXCOORD_0":2,
						"TEXCOORD_1":3
					},
					"indices":4,
					"material":0
				},
				{
					"attributes":{
						"POSITION":5,
						"NORMAL":6,
						"TEXCOORD_0":7,
						"TEXCOORD_1":8
					},
					"indices":9,
					"material":1
				},
				{
					"attributes":{
						"POSITION":10,
						"NORMAL":11,
						"TEXCOORD_0":12,
						"TEXCOORD_1":13
					},
					"indices":14,
					"material":2
				}
			]
		}
	],
	"accessors":[
		{
			"bufferView":0,
			"componentType":5126,
			"count":184,
			"max":[
				1,
				3.1226887702941895,
				1.1228350400924683
			],
			"min":[
				-1.0000001192092896,
				0.41332197189331055,
				-0.010601431131362915
			],
			"type":"VEC3"
		},
		{
			"bufferView":1,
			"componentType":5126,
			"count":184,
			"type":"VEC3"
		},
		{
			"bufferView":2,
			"componentType":5126,
			"count":184,
			"type":"VEC2"
		},
		{
			"bufferView":3,
			"componentType":5126,
			"count":184,
			"type":"VEC2"
		},
		{
			"bufferView":4,
			"componentType":5123,
			"count":474,
			"type":"SCALAR"
		},
		{
			"bufferView":5,
			"componentType":5126,
			"count":28,
			"max":[
				1,
				2.8951454162597656,
				0.7096808552742004
			],
			"min":[
				-1,
				0,
				-0.2000000923871994
			],
			"type":"VEC3"
		},
		{
			"bufferView":6,
			"componentType":5126,
			"count":28,
			"type":"VEC3"
		},
		{
			"bufferView":7,
			"componentType":5126,
			"count":28,
			"type":"VEC2"
		},
		{
			"bufferView":8,
			"componentType":5126,
			"count":28,
			"type":"VEC2"
		},
		{
			"bufferView":9,
			"componentType":5123,
			"count":72,
			"type":"SCALAR"
		},
		{
			"bufferView":10,
			"componentType":5126,
			"count":34,
			"max":[
				1,
				2.91355037689209,
				1.0948179960250854
			],
			"min":[
				-1,
				0,
				0
			],
			"type":"VEC3"
		},
		{
			"bufferView":11,
			"componentType":5126,
			"count":34,
			"type":"VEC3"
		},
		{
			"bufferView":12,
			"componentType":5126,
			"count":34,
			"type":"VEC2"
		},
		{
			"bufferView":13,
			"componentType":5126,
			"count":34,
			"type":"VEC2"
		},
		{
			"bufferView":14,
			"componentType":5123,
			"count":96,
			"type":"SCALAR"
		}
	],
	"bufferViews":[
		{
			"buffer":0,
			"byteLength":2208,
			"byteOffset":0,
			"target":34962
		},
		{
			"buffer":0,
			"byteLength":2208,
			"byteOffset":2208,
			"target":34962
		},
		{
			"buffer":0,
			"byteLength":1472,
			"byteOffset":4416,
			"target":34962
		},
		{
			"buffer":0,
			"byteLength":1472,
			"byteOffset":5888,
			"target":34962
		},
		{
			"buffer":0,
			"byteLength":948,
			"byteOffset":7360,
			"target":34963
		},
		{
			"buffer":0,
			"byteLength":336,
			"byteOffset":8308,
			"target":34962
		},
		{
			"buffer":0,
			"byteLength":336,
			"byteOffset":8644,
			"target":34962
		},
		{
			"buffer":0,
			"byteLength":224,
			"byteOffset":8980,
			"target":34962
		},
		{
			"buffer":0,
			"byteLength":224,
			"byteOffset":9204,
			"target":34962
		},
		{
			"buffer":0,
			"byteLength":144,
			"byteOffset":9428,
			"target":34963
		},
		{
			"buffer":0,
			"byteLength":408,
			"byteOffset":9572,
			"target":34962
		},
		{
			"buffer":0,
			"byteLength":408,
			"byteOffset":9980,
			"target":34962
		},
		{
			"buffer":0,
			"byteLength":272,
			"byteOffset":10388,
			"target":34962
		},
		{
			"buffer":0,
			"byteLength":272,
			"byteOffset":10660,
			"target":34962
		},
		{
			"buffer":0,
			"byteLength":192,
			"byteOffset":10932,
			"target":34963
		}
	],
	"buffers":[
		{
			"byteLength":11124,
			"uri":"Overhang_UnevenBrick_Short.bin"
		}
	]
}
