{
	"asset":{
		"generator":"Khronos glTF Blender I/O v5.1.20",
		"version":"2.0"
	},
	"scene":0,
	"scenes":[
		{
			"name":"Scene",
			"nodes":[
				0
			]
		}
	],
	"nodes":[
		{
			"mesh":0,
			"name":"Overhang_Plaster_Short"
		}
	],
	"materials":[
		{
			"doubleSided":true,
			"name":"MI_WoodTrim",
			"pbrMetallicRoughness":{
				"metallicFactor":0
			}
		},
		{
			"doubleSided":true,
			"name":"MI_Plaster",
			"pbrMetallicRoughness":{
				"metallicFactor":0,
				"roughnessFactor":0.5
			}
		}
	],
	"meshes":[
		{
			"name":"Cube.232",
			"primitives":[
				{
					"attributes":{
						"POSITION":0,
						"NORMAL":1,
						"TEXCOORD_0":2,
						"TEXCOORD_1":3
					},
					"indices":4,
					"material":0
				},
				{
					"attributes":{
						"POSITION":5,
						"NORMAL":6,
						"TEXCOORD_0":7,
						"TEXCOORD_1":8
					},
					"indices":9,
					"material":1
				}
			]
		}
	],
	"accessors":[
		{
			"bufferView":0,
			"componentType":5126,
			"count":200,
			"max":[
				1,
				3.1226887702941895,
				1.1228350400924683
			],
			"min":[
				-1.0000001192092896,
				0.41332197189331055,
				-0.012515849433839321
			],
			"type":"VEC3"
		},
		{
			"bufferView":1,
			"componentType":5126,
			"count":200,
			"type":"VEC3"
		},
		{
			"bufferView":2,
			"componentType":5126,
			"count":200,
			"type":"VEC2"
		},
		{
			"bufferView":3,
			"componentType":5126,
			"count":200,
			"type":"VEC2"
		},
		{
			"bufferView":4,
			"componentType":5123,
			"count":498,
			"type":"SCALAR"
		},
		{
			"bufferView":5,
			"componentType":5126,
			"count":62,
			"max":[
				1,
				2.91355037689209,
				1.0948179960250854
			],
			"min":[
				-1,
				0,
				-0.2000000923871994
			],
			"type":"VEC3"
		},
		{
			"bufferView":6,
			"componentType":5126,
			"count":62,
			"type":"VEC3"
		},
		{
			"bufferView":7,
			"componentType":5126,
			"count":62,
			"type":"VEC2"
		},
		{
			"bufferView":8,
			"componentType":5126,
			"count":62,
			"type":"VEC2"
		},
		{
			"bufferView":9,
			"componentType":5123,
			"count":168,
			"type":"SCALAR"
		}
	],
	"bufferViews":[
		{
			"buffer":0,
			"byteLength":2400,
			"byteOffset":0,
			"target":34962
		},
		{
			"buffer":0,
			"byteLength":2400,
			"byteOffset":2400,
			"target":34962
		},
		{
			"buffer":0,
			"byteLength":1600,
			"byteOffset":4800,
			"target":34962
		},
		{
			"buffer":0,
			"byteLength":1600,
			"byteOffset":6400,
			"target":34962
		},
		{
			"buffer":0,
			"byteLength":996,
			"byteOffset":8000,
			"target":34963
		},
		{
			"buffer":0,
			"byteLength":744,
			"byteOffset":8996,
			"target":34962
		},
		{
			"buffer":0,
			"byteLength":744,
			"byteOffset":9740,
			"target":34962
		},
		{
			"buffer":0,
			"byteLength":496,
			"byteOffset":10484,
			"target":34962
		},
		{
			"buffer":0,
			"byteLength":496,
			"byteOffset":10980,
			"target":34962
		},
		{
			"buffer":0,
			"byteLength":336,
			"byteOffset":11476,
			"target":34963
		}
	],
	"buffers":[
		{
			"byteLength":11812,
			"uri":"Overhang_Plaster_Short.bin"
		}
	]
}
