{
	"asset":{
		"generator":"Khronos glTF Blender I/O v5.1.20",
		"version":"2.0"
	},
	"scene":0,
	"scenes":[
		{
			"name":"Scene",
			"nodes":[
				0
			]
		}
	],
	"nodes":[
		{
			"mesh":0,
			"name":"Overhang_Side_Plaster_Short_R"
		}
	],
	"materials":[
		{
			"doubleSided":true,
			"name":"MI_WoodTrim",
			"pbrMetallicRoughness":{
				"metallicFactor":0
			}
		},
		{
			"doubleSided":true,
			"name":"MI_Plaster",
			"pbrMetallicRoughness":{
				"metallicFactor":0,
				"roughnessFactor":0.5
			}
		}
	],
	"meshes":[
		{
			"name":"Cube.1678",
			"primitives":[
				{
					"attributes":{
						"POSITION":0,
						"NORMAL":1,
						"TEXCOORD_0":2,
						"TEXCOORD_1":3
					},
					"indices":4,
					"material":0
				},
				{
					"attributes":{
						"POSITION":5,
						"NORMAL":6,
						"TEXCOORD_0":7,
						"TEXCOORD_1":8
					},
					"indices":9,
					"material":1
				}
			]
		}
	],
	"accessors":[
		{
			"bufferView":0,
			"componentType":5126,
			"count":358,
			"max":[
				1.1652966737747192,
				6.116764545440674,
				1.1228351593017578
			],
			"min":[
				0.6859644055366516,
				-2.384185791015625e-07,
				-0.3140338957309723
			],
			"type":"VEC3"
		},
		{
			"bufferView":1,
			"componentType":5126,
			"count":358,
			"type":"VEC3"
		},
		{
			"bufferView":2,
			"componentType":5126,
			"count":358,
			"type":"VEC2"
		},
		{
			"bufferView":3,
			"componentType":5126,
			"count":358,
			"type":"VEC2"
		},
		{
			"bufferView":4,
			"componentType":5123,
			"count":738,
			"type":"SCALAR"
		},
		{
			"bufferView":5,
			"componentType":5126,
			"count":60,
			"max":[
				1,
				6.000000476837158,
				1.0000004768371582
			],
			"min":[
				0.7999998331069946,
				1.906325340270996,
				-0.0009438991546630859
			],
			"type":"VEC3"
		},
		{
			"bufferView":6,
			"componentType":5126,
			"count":60,
			"type":"VEC3"
		},
		{
			"bufferView":7,
			"componentType":5126,
			"count":60,
			"type":"VEC2"
		},
		{
			"bufferView":8,
			"componentType":5126,
			"count":60,
			"type":"VEC2"
		},
		{
			"bufferView":9,
			"componentType":5123,
			"count":168,
			"type":"SCALAR"
		}
	],
	"bufferViews":[
		{
			"buffer":0,
			"byteLength":4296,
			"byteOffset":0,
			"target":34962
		},
		{
			"buffer":0,
			"byteLength":4296,
			"byteOffset":4296,
			"target":34962
		},
		{
			"buffer":0,
			"byteLength":2864,
			"byteOffset":8592,
			"target":34962
		},
		{
			"buffer":0,
			"byteLength":2864,
			"byteOffset":11456,
			"target":34962
		},
		{
			"buffer":0,
			"byteLength":1476,
			"byteOffset":14320,
			"target":34963
		},
		{
			"buffer":0,
			"byteLength":720,
			"byteOffset":15796,
			"target":34962
		},
		{
			"buffer":0,
			"byteLength":720,
			"byteOffset":16516,
			"target":34962
		},
		{
			"buffer":0,
			"byteLength":480,
			"byteOffset":17236,
			"target":34962
		},
		{
			"buffer":0,
			"byteLength":480,
			"byteOffset":17716,
			"target":34962
		},
		{
			"buffer":0,
			"byteLength":336,
			"byteOffset":18196,
			"target":34963
		}
	],
	"buffers":[
		{
			"byteLength":18532,
			"uri":"Overhang_Side_Plaster_Short_R.bin"
		}
	]
}
