{
	"asset":{
		"generator":"Khronos glTF Blender I/O v5.1.20",
		"version":"2.0"
	},
	"scene":0,
	"scenes":[
		{
			"name":"Scene",
			"nodes":[
				0
			]
		}
	],
	"nodes":[
		{
			"mesh":0,
			"name":"Petal_4"
		}
	],
	"materials":[
		{
			"alphaMode":"BLEND",
			"doubleSided":true,
			"name":"Flowers",
			"pbrMetallicRoughness":{
				"metallicFactor":0
			}
		}
	],
	"meshes":[
		{
			"name":"Plane.027",
			"primitives":[
				{
					"attributes":{
						"POSITION":0,
						"NORMAL":1,
						"TEXCOORD_0":2
					},
					"indices":3,
					"material":0
				}
			]
		}
	],
	"accessors":[
		{
			"bufferView":0,
			"componentType":5126,
			"count":25,
			"max":[
				0.1856984794139862,
				0.25205618143081665,
				0.12215583026409149
			],
			"min":[
				-0.1433948129415512,
				-1.3743051852088684e-07,
				-0.12229615449905396
			],
			"type":"VEC3"
		},
		{
			"bufferView":1,
			"componentType":5126,
			"count":25,
			"type":"VEC3"
		},
		{
			"bufferView":2,
			"componentType":5126,
			"count":25,
			"type":"VEC2"
		},
		{
			"bufferView":3,
			"componentType":5123,
			"count":90,
			"type":"SCALAR"
		}
	],
	"bufferViews":[
		{
			"buffer":0,
			"byteLength":300,
			"byteOffset":0,
			"target":34962
		},
		{
			"buffer":0,
			"byteLength":300,
			"byteOffset":300,
			"target":34962
		},
		{
			"buffer":0,
			"byteLength":200,
			"byteOffset":600,
			"target":34962
		},
		{
			"buffer":0,
			"byteLength":180,
			"byteOffset":800,
			"target":34963
		}
	],
	"buffers":[
		{
			"byteLength":980,
			"uri":"Petal_4.bin"
		}
	]
}
