{
	"asset":{
		"generator":"Khronos glTF Blender I/O v5.1.20",
		"version":"2.0"
	},
	"scene":0,
	"scenes":[
		{
			"name":"Scene",
			"nodes":[
				0
			]
		}
	],
	"nodes":[
		{
			"mesh":0,
			"name":"Pine_3"
		}
	],
	"materials":[
		{
			"doubleSided":true,
			"name":"Bark_NormalTree",
			"pbrMetallicRoughness":{
				"metallicFactor":0
			}
		},
		{
			"alphaMode":"BLEND",
			"doubleSided":true,
			"name":"Leaves_Pine",
			"pbrMetallicRoughness":{
				"metallicFactor":0
			}
		}
	],
	"meshes":[
		{
			"name":"tree.030",
			"primitives":[
				{
					"attributes":{
						"POSITION":0,
						"NORMAL":1,
						"TEXCOORD_0":2,
						"COLOR_0":3,
						"COLOR_1":4
					},
					"indices":5,
					"material":0
				},
				{
					"attributes":{
						"POSITION":6,
						"NORMAL":7,
						"TEXCOORD_0":8,
						"COLOR_0":9,
						"COLOR_1":10
					},
					"indices":11,
					"material":1
				}
			]
		}
	],
	"accessors":[
		{
			"bufferView":0,
			"componentType":5126,
			"count":2946,
			"max":[
				1.0800867080688477,
				6.998227119445801,
				1.1170551776885986
			],
			"min":[
				-0.9482465982437134,
				-0.23508860170841217,
				-1.2420871257781982
			],
			"type":"VEC3"
		},
		{
			"bufferView":1,
			"componentType":5126,
			"count":2946,
			"type":"VEC3"
		},
		{
			"bufferView":2,
			"componentType":5126,
			"count":2946,
			"type":"VEC2"
		},
		{
			"bufferView":3,
			"componentType":5121,
			"count":2946,
			"normalized":true,
			"type":"VEC4"
		},
		{
			"bufferView":4,
			"componentType":5123,
			"count":2946,
			"normalized":true,
			"type":"VEC4"
		},
		{
			"bufferView":5,
			"componentType":5123,
			"count":13506,
			"type":"SCALAR"
		},
		{
			"bufferView":6,
			"componentType":5126,
			"count":627,
			"max":[
				1.4976577758789062,
				7.157110214233398,
				1.7034649848937988
			],
			"min":[
				-2.113736867904663,
				3.187588691711426,
				-2.2923386096954346
			],
			"type":"VEC3"
		},
		{
			"bufferView":7,
			"componentType":5126,
			"count":627,
			"type":"VEC3"
		},
		{
			"bufferView":8,
			"componentType":5126,
			"count":627,
			"type":"VEC2"
		},
		{
			"bufferView":9,
			"componentType":5121,
			"count":627,
			"normalized":true,
			"type":"VEC4"
		},
		{
			"bufferView":10,
			"componentType":5123,
			"count":627,
			"normalized":true,
			"type":"VEC4"
		},
		{
			"bufferView":11,
			"componentType":5123,
			"count":1386,
			"type":"SCALAR"
		}
	],
	"bufferViews":[
		{
			"buffer":0,
			"byteLength":35352,
			"byteOffset":0,
			"target":34962
		},
		{
			"buffer":0,
			"byteLength":35352,
			"byteOffset":35352,
			"target":34962
		},
		{
			"buffer":0,
			"byteLength":23568,
			"byteOffset":70704,
			"target":34962
		},
		{
			"buffer":0,
			"byteLength":11784,
			"byteOffset":94272,
			"target":34962
		},
		{
			"buffer":0,
			"byteLength":23568,
			"byteOffset":106056,
			"target":34962
		},
		{
			"buffer":0,
			"byteLength":27012,
			"byteOffset":129624,
			"target":34963
		},
		{
			"buffer":0,
			"byteLength":7524,
			"byteOffset":156636,
			"target":34962
		},
		{
			"buffer":0,
			"byteLength":7524,
			"byteOffset":164160,
			"target":34962
		},
		{
			"buffer":0,
			"byteLength":5016,
			"byteOffset":171684,
			"target":34962
		},
		{
			"buffer":0,
			"byteLength":2508,
			"byteOffset":176700,
			"target":34962
		},
		{
			"buffer":0,
			"byteLength":5016,
			"byteOffset":179208,
			"target":34962
		},
		{
			"buffer":0,
			"byteLength":2772,
			"byteOffset":184224,
			"target":34963
		}
	],
	"buffers":[
		{
			"byteLength":186996,
			"uri":"Pine_3.bin"
		}
	]
}
