{
	"asset":{
		"generator":"Khronos glTF Blender I/O v5.1.20",
		"version":"2.0"
	},
	"scene":0,
	"scenes":[
		{
			"name":"Scene",
			"nodes":[
				0
			]
		}
	],
	"nodes":[
		{
			"mesh":0,
			"name":"Pine_5"
		}
	],
	"materials":[
		{
			"doubleSided":true,
			"name":"Bark_NormalTree",
			"pbrMetallicRoughness":{
				"metallicFactor":0
			}
		},
		{
			"alphaMode":"BLEND",
			"doubleSided":true,
			"name":"Leaves_Pine",
			"pbrMetallicRoughness":{
				"metallicFactor":0
			}
		}
	],
	"meshes":[
		{
			"name":"tree.032",
			"primitives":[
				{
					"attributes":{
						"POSITION":0,
						"NORMAL":1,
						"TEXCOORD_0":2,
						"COLOR_0":3,
						"COLOR_1":4
					},
					"indices":5,
					"material":0
				},
				{
					"attributes":{
						"POSITION":6,
						"NORMAL":7,
						"TEXCOORD_0":8,
						"COLOR_0":9,
						"COLOR_1":10
					},
					"indices":11,
					"material":1
				}
			]
		}
	],
	"accessors":[
		{
			"bufferView":0,
			"componentType":5126,
			"count":305,
			"max":[
				0.6472557783126831,
				8.332257270812988,
				0.4739142060279846
			],
			"min":[
				-0.47391438484191895,
				-0.23508861660957336,
				-1.5000479221343994
			],
			"type":"VEC3"
		},
		{
			"bufferView":1,
			"componentType":5126,
			"count":305,
			"type":"VEC3"
		},
		{
			"bufferView":2,
			"componentType":5126,
			"count":305,
			"type":"VEC2"
		},
		{
			"bufferView":3,
			"componentType":5121,
			"count":305,
			"normalized":true,
			"type":"VEC4"
		},
		{
			"bufferView":4,
			"componentType":5123,
			"count":305,
			"normalized":true,
			"type":"VEC4"
		},
		{
			"bufferView":5,
			"componentType":5123,
			"count":1464,
			"type":"SCALAR"
		},
		{
			"bufferView":6,
			"componentType":5126,
			"count":1311,
			"max":[
				3.432434320449829,
				8.48871898651123,
				2.4435970783233643
			],
			"min":[
				-2.987706422805786,
				1.453586220741272,
				-3.7784042358398438
			],
			"type":"VEC3"
		},
		{
			"bufferView":7,
			"componentType":5126,
			"count":1311,
			"type":"VEC3"
		},
		{
			"bufferView":8,
			"componentType":5126,
			"count":1311,
			"type":"VEC2"
		},
		{
			"bufferView":9,
			"componentType":5121,
			"count":1311,
			"normalized":true,
			"type":"VEC4"
		},
		{
			"bufferView":10,
			"componentType":5123,
			"count":1311,
			"normalized":true,
			"type":"VEC4"
		},
		{
			"bufferView":11,
			"componentType":5123,
			"count":3474,
			"type":"SCALAR"
		}
	],
	"bufferViews":[
		{
			"buffer":0,
			"byteLength":3660,
			"byteOffset":0,
			"target":34962
		},
		{
			"buffer":0,
			"byteLength":3660,
			"byteOffset":3660,
			"target":34962
		},
		{
			"buffer":0,
			"byteLength":2440,
			"byteOffset":7320,
			"target":34962
		},
		{
			"buffer":0,
			"byteLength":1220,
			"byteOffset":9760,
			"target":34962
		},
		{
			"buffer":0,
			"byteLength":2440,
			"byteOffset":10980,
			"target":34962
		},
		{
			"buffer":0,
			"byteLength":2928,
			"byteOffset":13420,
			"target":34963
		},
		{
			"buffer":0,
			"byteLength":15732,
			"byteOffset":16348,
			"target":34962
		},
		{
			"buffer":0,
			"byteLength":15732,
			"byteOffset":32080,
			"target":34962
		},
		{
			"buffer":0,
			"byteLength":10488,
			"byteOffset":47812,
			"target":34962
		},
		{
			"buffer":0,
			"byteLength":5244,
			"byteOffset":58300,
			"target":34962
		},
		{
			"buffer":0,
			"byteLength":10488,
			"byteOffset":63544,
			"target":34962
		},
		{
			"buffer":0,
			"byteLength":6948,
			"byteOffset":74032,
			"target":34963
		}
	],
	"buffers":[
		{
			"byteLength":80980,
			"uri":"Pine_5.bin"
		}
	]
}
