{"asset":{"generator":"Khronos glTF Blender I/O v5.1.20","version":"2.0"},"scene":0,"scenes":[{"name":"Scene","nodes":[0]}],"nodes":[{"mesh":0,"name":"Pine_1"}],"materials":[{"doubleSided":true,"name":"Bark_NormalTree","pbrMetallicRoughness":{"metallicFactor":0,"baseColorTexture":{"index":0}},"normalTexture":{"index":1}},{"alphaMode":"BLEND","doubleSided":true,"name":"Leaves_Pine","pbrMetallicRoughness":{"metallicFactor":0,"baseColorTexture":{"index":2}}}],"meshes":[{"name":"tree.028","primitives":[{"attributes":{"POSITION":0,"NORMAL":1,"TEXCOORD_0":2,"COLOR_0":3,"COLOR_1":4},"indices":5,"material":0},{"attributes":{"POSITION":6,"NORMAL":7,"TEXCOORD_0":8,"COLOR_0":9,"COLOR_1":10},"indices":11,"material":1}]}],"accessors":[{"bufferView":0,"componentType":5126,"count":2162,"max":[1.3389160633087158,6.822727203369141,1.3303884267807007],"min":[-1.0975136756896973,-0.23508860170841217,-1.8778250217437744],"type":"VEC3"},{"bufferView":1,"componentType":5126,"count":2162,"type":"VEC3"},{"bufferView":2,"componentType":5126,"count":2162,"type":"VEC2"},{"bufferView":3,"componentType":5121,"count":2162,"normalized":true,"type":"VEC4"},{"bufferView":4,"componentType":5123,"count":2162,"normalized":true,"type":"VEC4"},{"bufferView":5,"componentType":5123,"count":9531,"type":"SCALAR"},{"bufferView":6,"componentType":5126,"count":846,"max":[2.4958789348602295,7.081829071044922,2.0614705085754395],"min":[-2.448819160461426,2.158754587173462,-2.4769327640533447],"type":"VEC3"},{"bufferView":7,"componentType":5126,"count":846,"type":"VEC3"},{"bufferView":8,"componentType":5126,"count":846,"type":"VEC2"},{"bufferView":9,"componentType":5121,"count":846,"normalized":true,"type":"VEC4"},{"bufferView":10,"componentType":5123,"count":846,"normalized":true,"type":"VEC4"},{"bufferView":11,"componentType":5123,"count":2310,"type":"SCALAR"}],"bufferViews":[{"buffer":0,"byteLength":25944,"byteOffset":0,"target":34962},{"buffer":0,"byteLength":25944,"byteOffset":25944,"target":34962},{"buffer":0,"byteLength":17296,"byteOffset":51888,"target":34962},{"buffer":0,"byteLength":8648,"byteOffset":69184,"target":34962},{"buffer":0,"byteLength":17296,"byteOffset":77832,"target":34962},{"buffer":0,"byteLength":19062,"byteOffset":95128,"target":34963},{"buffer":0,"byteLength":10152,"byteOffset":114192,"target":34962},{"buffer":0,"byteLength":10152,"byteOffset":124344,"target":34962},{"buffer":0,"byteLength":6768,"byteOffset":134496,"target":34962},{"buffer":0,"byteLength":3384,"byteOffset":141264,"target":34962},{"buffer":0,"byteLength":6768,"byteOffset":144648,"target":34962},{"buffer":0,"byteLength":4620,"byteOffset":151416,"target":34963}],"buffers":[{"byteLength":156036,"uri":"Pine_1.bin"}],"images":[{"uri":"Bark_NormalTree.png"},{"uri":"Bark_NormalTree_Normal.png"},{"uri":"Leaf_Pine.png"}],"textures":[{"sampler":0,"source":0},{"sampler":0,"source":1},{"sampler":0,"source":2}],"samplers":[{"magFilter":9729,"minFilter":9987}]}