{"asset":{"generator":"Khronos glTF Blender I/O v5.1.20","version":"2.0"},"scene":0,"scenes":[{"name":"Scene","nodes":[0]}],"nodes":[{"mesh":0,"name":"Pine_2"}],"materials":[{"doubleSided":true,"name":"Bark_NormalTree","pbrMetallicRoughness":{"metallicFactor":0,"baseColorTexture":{"index":0}},"normalTexture":{"index":1}},{"alphaMode":"BLEND","doubleSided":true,"name":"Leaves_Pine","pbrMetallicRoughness":{"metallicFactor":0,"baseColorTexture":{"index":2}}}],"meshes":[{"name":"tree.029","primitives":[{"attributes":{"POSITION":0,"NORMAL":1,"TEXCOORD_0":2,"COLOR_0":3,"COLOR_1":4},"indices":5,"material":0},{"attributes":{"POSITION":6,"NORMAL":7,"TEXCOORD_0":8,"COLOR_0":9,"COLOR_1":10},"indices":11,"material":1}]}],"accessors":[{"bufferView":0,"componentType":5126,"count":1900,"max":[1.3288283348083496,6.861804008483887,1.4154813289642334],"min":[-0.8798791170120239,-0.23508860170841217,-1.9060800075531006],"type":"VEC3"},{"bufferView":1,"componentType":5126,"count":1900,"type":"VEC3"},{"bufferView":2,"componentType":5126,"count":1900,"type":"VEC2"},{"bufferView":3,"componentType":5121,"count":1900,"normalized":true,"type":"VEC4"},{"bufferView":4,"componentType":5123,"count":1900,"normalized":true,"type":"VEC4"},{"bufferView":5,"componentType":5123,"count":8634,"type":"SCALAR"},{"bufferView":6,"componentType":5126,"count":978,"max":[2.8361265659332275,7.141149520874023,2.527508020401001],"min":[-2.891958236694336,1.1175905466079712,-2.6936988830566406],"type":"VEC3"},{"bufferView":7,"componentType":5126,"count":978,"type":"VEC3"},{"bufferView":8,"componentType":5126,"count":978,"type":"VEC2"},{"bufferView":9,"componentType":5121,"count":978,"normalized":true,"type":"VEC4"},{"bufferView":10,"componentType":5123,"count":978,"normalized":true,"type":"VEC4"},{"bufferView":11,"componentType":5123,"count":2310,"type":"SCALAR"}],"bufferViews":[{"buffer":0,"byteLength":22800,"byteOffset":0,"target":34962},{"buffer":0,"byteLength":22800,"byteOffset":22800,"target":34962},{"buffer":0,"byteLength":15200,"byteOffset":45600,"target":34962},{"buffer":0,"byteLength":7600,"byteOffset":60800,"target":34962},{"buffer":0,"byteLength":15200,"byteOffset":68400,"target":34962},{"buffer":0,"byteLength":17268,"byteOffset":83600,"target":34963},{"buffer":0,"byteLength":11736,"byteOffset":100868,"target":34962},{"buffer":0,"byteLength":11736,"byteOffset":112604,"target":34962},{"buffer":0,"byteLength":7824,"byteOffset":124340,"target":34962},{"buffer":0,"byteLength":3912,"byteOffset":132164,"target":34962},{"buffer":0,"byteLength":7824,"byteOffset":136076,"target":34962},{"buffer":0,"byteLength":4620,"byteOffset":143900,"target":34963}],"buffers":[{"byteLength":148520,"uri":"Pine_2.bin"}],"images":[{"uri":"Bark_NormalTree.png"},{"uri":"Bark_NormalTree_Normal.png"},{"uri":"Leaf_Pine.png"}],"textures":[{"sampler":0,"source":0},{"sampler":0,"source":1},{"sampler":0,"source":2}],"samplers":[{"magFilter":9729,"minFilter":9987}]}