{"asset":{"generator":"Khronos glTF Blender I/O v5.1.20","version":"2.0"},"scene":0,"scenes":[{"name":"Scene","nodes":[0]}],"nodes":[{"mesh":0,"name":"Pine_4"}],"materials":[{"doubleSided":true,"name":"Bark_NormalTree","pbrMetallicRoughness":{"metallicFactor":0,"baseColorTexture":{"index":0}},"normalTexture":{"index":1}},{"alphaMode":"BLEND","doubleSided":true,"name":"Leaves_Pine","pbrMetallicRoughness":{"metallicFactor":0,"baseColorTexture":{"index":2}}}],"meshes":[{"name":"tree.031","primitives":[{"attributes":{"POSITION":0,"NORMAL":1,"TEXCOORD_0":2,"COLOR_0":3,"COLOR_1":4},"indices":5,"material":0},{"attributes":{"POSITION":6,"NORMAL":7,"TEXCOORD_0":8,"COLOR_0":9,"COLOR_1":10},"indices":11,"material":1}]}],"accessors":[{"bufferView":0,"componentType":5126,"count":1523,"max":[1.9782183170318604,9.700387001037598,0.8374438285827637],"min":[-1.9725096225738525,-0.23508861660957336,-1.9964979887008667],"type":"VEC3"},{"bufferView":1,"componentType":5126,"count":1523,"type":"VEC3"},{"bufferView":2,"componentType":5126,"count":1523,"type":"VEC2"},{"bufferView":3,"componentType":5121,"count":1523,"normalized":true,"type":"VEC4"},{"bufferView":4,"componentType":5123,"count":1523,"normalized":true,"type":"VEC4"},{"bufferView":5,"componentType":5123,"count":6480,"type":"SCALAR"},{"bufferView":6,"componentType":5126,"count":1436,"max":[2.930187225341797,10.0013427734375,2.424938201904297],"min":[-2.8718371391296387,2.4392924308776855,-2.9459073543548584],"type":"VEC3"},{"bufferView":7,"componentType":5126,"count":1436,"type":"VEC3"},{"bufferView":8,"componentType":5126,"count":1436,"type":"VEC2"},{"bufferView":9,"componentType":5121,"count":1436,"normalized":true,"type":"VEC4"},{"bufferView":10,"componentType":5123,"count":1436,"normalized":true,"type":"VEC4"},{"bufferView":11,"componentType":5123,"count":3630,"type":"SCALAR"}],"bufferViews":[{"buffer":0,"byteLength":18276,"byteOffset":0,"target":34962},{"buffer":0,"byteLength":18276,"byteOffset":18276,"target":34962},{"buffer":0,"byteLength":12184,"byteOffset":36552,"target":34962},{"buffer":0,"byteLength":6092,"byteOffset":48736,"target":34962},{"buffer":0,"byteLength":12184,"byteOffset":54828,"target":34962},{"buffer":0,"byteLength":12960,"byteOffset":67012,"target":34963},{"buffer":0,"byteLength":17232,"byteOffset":79972,"target":34962},{"buffer":0,"byteLength":17232,"byteOffset":97204,"target":34962},{"buffer":0,"byteLength":11488,"byteOffset":114436,"target":34962},{"buffer":0,"byteLength":5744,"byteOffset":125924,"target":34962},{"buffer":0,"byteLength":11488,"byteOffset":131668,"target":34962},{"buffer":0,"byteLength":7260,"byteOffset":143156,"target":34963}],"buffers":[{"byteLength":150416,"uri":"Pine_4.bin"}],"images":[{"uri":"Bark_NormalTree.png"},{"uri":"Bark_NormalTree_Normal.png"},{"uri":"Leaf_Pine.png"}],"textures":[{"sampler":0,"source":0},{"sampler":0,"source":1},{"sampler":0,"source":2}],"samplers":[{"magFilter":9729,"minFilter":9987}]}