{
	"asset":{
		"generator":"Khronos glTF Blender I/O v5.1.20",
		"version":"2.0"
	},
	"scene":0,
	"scenes":[
		{
			"name":"Scene",
			"nodes":[
				0
			]
		}
	],
	"nodes":[
		{
			"mesh":0,
			"name":"Prop_Wagon"
		}
	],
	"materials":[
		{
			"doubleSided":true,
			"name":"MI_WoodTrim_Wear",
			"pbrMetallicRoughness":{
				"metallicFactor":0
			}
		}
	],
	"meshes":[
		{
			"name":"Cube.043",
			"primitives":[
				{
					"attributes":{
						"POSITION":0,
						"NORMAL":1,
						"TEXCOORD_0":2,
						"TEXCOORD_1":3
					},
					"indices":4,
					"material":0
				}
			]
		}
	],
	"accessors":[
		{
			"bufferView":0,
			"componentType":5126,
			"count":2331,
			"max":[
				0.9720492362976074,
				1.5323269367218018,
				0.8735843896865845
			],
			"min":[
				-0.9793591499328613,
				0.00312984362244606,
				-3.1504321098327637
			],
			"type":"VEC3"
		},
		{
			"bufferView":1,
			"componentType":5126,
			"count":2331,
			"type":"VEC3"
		},
		{
			"bufferView":2,
			"componentType":5126,
			"count":2331,
			"type":"VEC2"
		},
		{
			"bufferView":3,
			"componentType":5126,
			"count":2331,
			"type":"VEC2"
		},
		{
			"bufferView":4,
			"componentType":5123,
			"count":5016,
			"type":"SCALAR"
		}
	],
	"bufferViews":[
		{
			"buffer":0,
			"byteLength":27972,
			"byteOffset":0,
			"target":34962
		},
		{
			"buffer":0,
			"byteLength":27972,
			"byteOffset":27972,
			"target":34962
		},
		{
			"buffer":0,
			"byteLength":18648,
			"byteOffset":55944,
			"target":34962
		},
		{
			"buffer":0,
			"byteLength":18648,
			"byteOffset":74592,
			"target":34962
		},
		{
			"buffer":0,
			"byteLength":10032,
			"byteOffset":93240,
			"target":34963
		}
	],
	"buffers":[
		{
			"byteLength":103272,
			"uri":"Prop_Wagon.bin"
		}
	]
}
