{
	"asset":{
		"generator":"Khronos glTF Blender I/O v5.1.20",
		"version":"2.0"
	},
	"scene":0,
	"scenes":[
		{
			"name":"Scene",
			"nodes":[
				0
			]
		}
	],
	"nodes":[
		{
			"mesh":0,
			"name":"RockPath_Square_Wide"
		}
	],
	"materials":[
		{
			"doubleSided":true,
			"name":"PathRocks",
			"pbrMetallicRoughness":{
				"metallicFactor":0
			}
		}
	],
	"meshes":[
		{
			"name":"Cube.017_Retopology.038",
			"primitives":[
				{
					"attributes":{
						"POSITION":0,
						"NORMAL":1,
						"TEXCOORD_0":2
					},
					"indices":3,
					"material":0
				}
			]
		}
	],
	"accessors":[
		{
			"bufferView":0,
			"componentType":5126,
			"count":4378,
			"max":[
				1.0278809070587158,
				0.16620168089866638,
				0.9870055913925171
			],
			"min":[
				-1.0236998796463013,
				-0.010146240703761578,
				-0.9999311566352844
			],
			"type":"VEC3"
		},
		{
			"bufferView":1,
			"componentType":5126,
			"count":4378,
			"type":"VEC3"
		},
		{
			"bufferView":2,
			"componentType":5126,
			"count":4378,
			"type":"VEC2"
		},
		{
			"bufferView":3,
			"componentType":5123,
			"count":6768,
			"type":"SCALAR"
		}
	],
	"bufferViews":[
		{
			"buffer":0,
			"byteLength":52536,
			"byteOffset":0,
			"target":34962
		},
		{
			"buffer":0,
			"byteLength":52536,
			"byteOffset":52536,
			"target":34962
		},
		{
			"buffer":0,
			"byteLength":35024,
			"byteOffset":105072,
			"target":34962
		},
		{
			"buffer":0,
			"byteLength":13536,
			"byteOffset":140096,
			"target":34963
		}
	],
	"buffers":[
		{
			"byteLength":153632,
			"uri":"RockPath_Square_Wide.bin"
		}
	]
}
