{
	"asset":{
		"generator":"Khronos glTF Blender I/O v5.1.20",
		"version":"2.0"
	},
	"scene":0,
	"scenes":[
		{
			"name":"Scene",
			"nodes":[
				0
			]
		}
	],
	"nodes":[
		{
			"mesh":0,
			"name":"RockPath_Square_Small_3"
		}
	],
	"materials":[
		{
			"doubleSided":true,
			"name":"PathRocks",
			"pbrMetallicRoughness":{
				"metallicFactor":0
			}
		}
	],
	"meshes":[
		{
			"name":"Cube.017_Retopology.015",
			"primitives":[
				{
					"attributes":{
						"POSITION":0,
						"NORMAL":1,
						"TEXCOORD_0":2
					},
					"indices":3,
					"material":0
				}
			]
		}
	],
	"accessors":[
		{
			"bufferView":0,
			"componentType":5126,
			"count":1106,
			"max":[
				0.43974483013153076,
				0.16551485657691956,
				0.5275344848632812
			],
			"min":[
				-0.3961157500743866,
				-0.00811817031353712,
				-0.5487543344497681
			],
			"type":"VEC3"
		},
		{
			"bufferView":1,
			"componentType":5126,
			"count":1106,
			"type":"VEC3"
		},
		{
			"bufferView":2,
			"componentType":5126,
			"count":1106,
			"type":"VEC2"
		},
		{
			"bufferView":3,
			"componentType":5123,
			"count":1704,
			"type":"SCALAR"
		}
	],
	"bufferViews":[
		{
			"buffer":0,
			"byteLength":13272,
			"byteOffset":0,
			"target":34962
		},
		{
			"buffer":0,
			"byteLength":13272,
			"byteOffset":13272,
			"target":34962
		},
		{
			"buffer":0,
			"byteLength":8848,
			"byteOffset":26544,
			"target":34962
		},
		{
			"buffer":0,
			"byteLength":3408,
			"byteOffset":35392,
			"target":34963
		}
	],
	"buffers":[
		{
			"byteLength":38800,
			"uri":"RockPath_Square_Small_3.bin"
		}
	]
}
