{
	"asset":{
		"generator":"Khronos glTF Blender I/O v5.1.20",
		"version":"2.0"
	},
	"scene":0,
	"scenes":[
		{
			"name":"Scene",
			"nodes":[
				0
			]
		}
	],
	"nodes":[
		{
			"mesh":0,
			"name":"RockPath_Round_Small_2"
		}
	],
	"materials":[
		{
			"doubleSided":true,
			"name":"PathRocks",
			"pbrMetallicRoughness":{
				"metallicFactor":0
			}
		}
	],
	"meshes":[
		{
			"name":"Cube.017_Retopology.013",
			"primitives":[
				{
					"attributes":{
						"POSITION":0,
						"NORMAL":1,
						"TEXCOORD_0":2
					},
					"indices":3,
					"material":0
				}
			]
		}
	],
	"accessors":[
		{
			"bufferView":0,
			"componentType":5126,
			"count":2147,
			"max":[
				0.5792431235313416,
				0.09686935693025589,
				0.5954861640930176
			],
			"min":[
				-0.5602763891220093,
				-0.0077979713678359985,
				-0.7587976455688477
			],
			"type":"VEC3"
		},
		{
			"bufferView":1,
			"componentType":5126,
			"count":2147,
			"type":"VEC3"
		},
		{
			"bufferView":2,
			"componentType":5126,
			"count":2147,
			"type":"VEC2"
		},
		{
			"bufferView":3,
			"componentType":5123,
			"count":3378,
			"type":"SCALAR"
		}
	],
	"bufferViews":[
		{
			"buffer":0,
			"byteLength":25764,
			"byteOffset":0,
			"target":34962
		},
		{
			"buffer":0,
			"byteLength":25764,
			"byteOffset":25764,
			"target":34962
		},
		{
			"buffer":0,
			"byteLength":17176,
			"byteOffset":51528,
			"target":34962
		},
		{
			"buffer":0,
			"byteLength":6756,
			"byteOffset":68704,
			"target":34963
		}
	],
	"buffers":[
		{
			"byteLength":75460,
			"uri":"RockPath_Round_Small_2.bin"
		}
	]
}
