{
	"asset":{
		"generator":"Khronos glTF Blender I/O v5.1.20",
		"version":"2.0"
	},
	"scene":0,
	"scenes":[
		{
			"name":"Scene",
			"nodes":[
				0
			]
		}
	],
	"nodes":[
		{
			"mesh":0,
			"name":"RockPath_Square_Small_1"
		}
	],
	"materials":[
		{
			"doubleSided":true,
			"name":"PathRocks",
			"pbrMetallicRoughness":{
				"metallicFactor":0
			}
		}
	],
	"meshes":[
		{
			"name":"Cube.017_Retopology.016",
			"primitives":[
				{
					"attributes":{
						"POSITION":0,
						"NORMAL":1,
						"TEXCOORD_0":2
					},
					"indices":3,
					"material":0
				}
			]
		}
	],
	"accessors":[
		{
			"bufferView":0,
			"componentType":5126,
			"count":1511,
			"max":[
				0.49995994567871094,
				0.14124737679958344,
				0.4995327293872833
			],
			"min":[
				-0.518924355506897,
				-0.008622835390269756,
				-0.4743192493915558
			],
			"type":"VEC3"
		},
		{
			"bufferView":1,
			"componentType":5126,
			"count":1511,
			"type":"VEC3"
		},
		{
			"bufferView":2,
			"componentType":5126,
			"count":1511,
			"type":"VEC2"
		},
		{
			"bufferView":3,
			"componentType":5123,
			"count":2349,
			"type":"SCALAR"
		}
	],
	"bufferViews":[
		{
			"buffer":0,
			"byteLength":18132,
			"byteOffset":0,
			"target":34962
		},
		{
			"buffer":0,
			"byteLength":18132,
			"byteOffset":18132,
			"target":34962
		},
		{
			"buffer":0,
			"byteLength":12088,
			"byteOffset":36264,
			"target":34962
		},
		{
			"buffer":0,
			"byteLength":4698,
			"byteOffset":48352,
			"target":34963
		}
	],
	"buffers":[
		{
			"byteLength":53052,
			"uri":"RockPath_Square_Small_1.bin"
		}
	]
}
