{
	"asset":{
		"generator":"Khronos glTF Blender I/O v5.1.20",
		"version":"2.0"
	},
	"scene":0,
	"scenes":[
		{
			"name":"Scene",
			"nodes":[
				0
			]
		}
	],
	"nodes":[
		{
			"mesh":0,
			"name":"RockPath_Round_Thin"
		}
	],
	"materials":[
		{
			"doubleSided":true,
			"name":"PathRocks",
			"pbrMetallicRoughness":{
				"metallicFactor":0
			}
		}
	],
	"meshes":[
		{
			"name":"Cube.017_Retopology.074",
			"primitives":[
				{
					"attributes":{
						"POSITION":0,
						"NORMAL":1,
						"TEXCOORD_0":2
					},
					"indices":3,
					"material":0
				}
			]
		}
	],
	"accessors":[
		{
			"bufferView":0,
			"componentType":5126,
			"count":4308,
			"max":[
				0.7602781653404236,
				0.10147523880004883,
				1.00310480594635
			],
			"min":[
				-0.6970729231834412,
				-0.008862055838108063,
				-1.0861014127731323
			],
			"type":"VEC3"
		},
		{
			"bufferView":1,
			"componentType":5126,
			"count":4308,
			"type":"VEC3"
		},
		{
			"bufferView":2,
			"componentType":5126,
			"count":4308,
			"type":"VEC2"
		},
		{
			"bufferView":3,
			"componentType":5123,
			"count":6762,
			"type":"SCALAR"
		}
	],
	"bufferViews":[
		{
			"buffer":0,
			"byteLength":51696,
			"byteOffset":0,
			"target":34962
		},
		{
			"buffer":0,
			"byteLength":51696,
			"byteOffset":51696,
			"target":34962
		},
		{
			"buffer":0,
			"byteLength":34464,
			"byteOffset":103392,
			"target":34962
		},
		{
			"buffer":0,
			"byteLength":13524,
			"byteOffset":137856,
			"target":34963
		}
	],
	"buffers":[
		{
			"byteLength":151380,
			"uri":"RockPath_Round_Thin.bin"
		}
	]
}
