{
	"asset":{
		"generator":"Khronos glTF Blender I/O v5.1.20",
		"version":"2.0"
	},
	"scene":0,
	"scenes":[
		{
			"name":"Scene",
			"nodes":[
				0
			]
		}
	],
	"nodes":[
		{
			"mesh":0,
			"name":"Roof_RoundTiles_6x4"
		}
	],
	"materials":[
		{
			"doubleSided":true,
			"name":"MI_RoundTiles",
			"pbrMetallicRoughness":{
				"metallicFactor":0
			}
		},
		{
			"doubleSided":true,
			"name":"MI_WoodTrim",
			"pbrMetallicRoughness":{
				"metallicFactor":0
			}
		}
	],
	"meshes":[
		{
			"name":"Plane.028",
			"primitives":[
				{
					"attributes":{
						"POSITION":0,
						"NORMAL":1,
						"TEXCOORD_0":2,
						"TEXCOORD_1":3
					},
					"indices":4,
					"material":0
				},
				{
					"attributes":{
						"POSITION":5,
						"NORMAL":6,
						"TEXCOORD_0":7,
						"TEXCOORD_1":8
					},
					"indices":9,
					"material":1
				}
			]
		}
	],
	"accessors":[
		{
			"bufferView":0,
			"componentType":5126,
			"count":1232,
			"max":[
				4.124891757965088,
				4.890044689178467,
				4.853985786437988
			],
			"min":[
				-4.124891757965088,
				-0.6355158090591431,
				-0.13820242881774902
			],
			"type":"VEC3"
		},
		{
			"bufferView":1,
			"componentType":5126,
			"count":1232,
			"type":"VEC3"
		},
		{
			"bufferView":2,
			"componentType":5126,
			"count":1232,
			"type":"VEC2"
		},
		{
			"bufferView":3,
			"componentType":5126,
			"count":1232,
			"type":"VEC2"
		},
		{
			"bufferView":4,
			"componentType":5123,
			"count":4308,
			"type":"SCALAR"
		},
		{
			"bufferView":5,
			"componentType":5126,
			"count":1298,
			"max":[
				3.958950996398926,
				4.341731071472168,
				4.828753471374512
			],
			"min":[
				-3.958950996398926,
				-0.7821268439292908,
				-0.11829806864261627
			],
			"type":"VEC3"
		},
		{
			"bufferView":6,
			"componentType":5126,
			"count":1298,
			"type":"VEC3"
		},
		{
			"bufferView":7,
			"componentType":5126,
			"count":1298,
			"type":"VEC2"
		},
		{
			"bufferView":8,
			"componentType":5126,
			"count":1298,
			"type":"VEC2"
		},
		{
			"bufferView":9,
			"componentType":5123,
			"count":2268,
			"type":"SCALAR"
		}
	],
	"bufferViews":[
		{
			"buffer":0,
			"byteLength":14784,
			"byteOffset":0,
			"target":34962
		},
		{
			"buffer":0,
			"byteLength":14784,
			"byteOffset":14784,
			"target":34962
		},
		{
			"buffer":0,
			"byteLength":9856,
			"byteOffset":29568,
			"target":34962
		},
		{
			"buffer":0,
			"byteLength":9856,
			"byteOffset":39424,
			"target":34962
		},
		{
			"buffer":0,
			"byteLength":8616,
			"byteOffset":49280,
			"target":34963
		},
		{
			"buffer":0,
			"byteLength":15576,
			"byteOffset":57896,
			"target":34962
		},
		{
			"buffer":0,
			"byteLength":15576,
			"byteOffset":73472,
			"target":34962
		},
		{
			"buffer":0,
			"byteLength":10384,
			"byteOffset":89048,
			"target":34962
		},
		{
			"buffer":0,
			"byteLength":10384,
			"byteOffset":99432,
			"target":34962
		},
		{
			"buffer":0,
			"byteLength":4536,
			"byteOffset":109816,
			"target":34963
		}
	],
	"buffers":[
		{
			"byteLength":114352,
			"uri":"Roof_RoundTiles_6x4.bin"
		}
	]
}
