{
	"asset":{
		"generator":"Khronos glTF Blender I/O v5.1.20",
		"version":"2.0"
	},
	"scene":0,
	"scenes":[
		{
			"name":"Scene",
			"nodes":[
				0
			]
		}
	],
	"nodes":[
		{
			"mesh":0,
			"name":"Roof_RoundTiles_6x8"
		}
	],
	"materials":[
		{
			"doubleSided":true,
			"name":"MI_WoodTrim",
			"pbrMetallicRoughness":{
				"metallicFactor":0
			}
		},
		{
			"doubleSided":true,
			"name":"MI_RoundTiles",
			"pbrMetallicRoughness":{
				"metallicFactor":0
			}
		}
	],
	"meshes":[
		{
			"name":"Cube.015",
			"primitives":[
				{
					"attributes":{
						"POSITION":0,
						"NORMAL":1,
						"TEXCOORD_0":2,
						"TEXCOORD_1":3
					},
					"indices":4,
					"material":0
				},
				{
					"attributes":{
						"POSITION":5,
						"NORMAL":6,
						"TEXCOORD_0":7,
						"TEXCOORD_1":8
					},
					"indices":9,
					"material":1
				}
			]
		}
	],
	"accessors":[
		{
			"bufferView":0,
			"componentType":5126,
			"count":1752,
			"max":[
				3.958951234817505,
				4.342607498168945,
				4.828753471374512
			],
			"min":[
				-3.958951234817505,
				-0.7821269035339355,
				-4.828753471374512
			],
			"type":"VEC3"
		},
		{
			"bufferView":1,
			"componentType":5126,
			"count":1752,
			"type":"VEC3"
		},
		{
			"bufferView":2,
			"componentType":5126,
			"count":1752,
			"type":"VEC2"
		},
		{
			"bufferView":3,
			"componentType":5126,
			"count":1752,
			"type":"VEC2"
		},
		{
			"bufferView":4,
			"componentType":5123,
			"count":3048,
			"type":"SCALAR"
		},
		{
			"bufferView":5,
			"componentType":5126,
			"count":2372,
			"max":[
				4.124891757965088,
				4.890044689178467,
				4.8539862632751465
			],
			"min":[
				-4.124891757965088,
				-0.6384454965591431,
				-4.756110191345215
			],
			"type":"VEC3"
		},
		{
			"bufferView":6,
			"componentType":5126,
			"count":2372,
			"type":"VEC3"
		},
		{
			"bufferView":7,
			"componentType":5126,
			"count":2372,
			"type":"VEC2"
		},
		{
			"bufferView":8,
			"componentType":5126,
			"count":2372,
			"type":"VEC2"
		},
		{
			"bufferView":9,
			"componentType":5123,
			"count":8340,
			"type":"SCALAR"
		}
	],
	"bufferViews":[
		{
			"buffer":0,
			"byteLength":21024,
			"byteOffset":0,
			"target":34962
		},
		{
			"buffer":0,
			"byteLength":21024,
			"byteOffset":21024,
			"target":34962
		},
		{
			"buffer":0,
			"byteLength":14016,
			"byteOffset":42048,
			"target":34962
		},
		{
			"buffer":0,
			"byteLength":14016,
			"byteOffset":56064,
			"target":34962
		},
		{
			"buffer":0,
			"byteLength":6096,
			"byteOffset":70080,
			"target":34963
		},
		{
			"buffer":0,
			"byteLength":28464,
			"byteOffset":76176,
			"target":34962
		},
		{
			"buffer":0,
			"byteLength":28464,
			"byteOffset":104640,
			"target":34962
		},
		{
			"buffer":0,
			"byteLength":18976,
			"byteOffset":133104,
			"target":34962
		},
		{
			"buffer":0,
			"byteLength":18976,
			"byteOffset":152080,
			"target":34962
		},
		{
			"buffer":0,
			"byteLength":16680,
			"byteOffset":171056,
			"target":34963
		}
	],
	"buffers":[
		{
			"byteLength":187736,
			"uri":"Roof_RoundTiles_6x8.bin"
		}
	]
}
