{
	"asset":{
		"generator":"Khronos glTF Blender I/O v5.1.20",
		"version":"2.0"
	},
	"scene":0,
	"scenes":[
		{
			"name":"Scene",
			"nodes":[
				0
			]
		}
	],
	"nodes":[
		{
			"mesh":0,
			"name":"Roof_RoundTiles_8x8"
		}
	],
	"materials":[
		{
			"doubleSided":true,
			"name":"MI_WoodTrim",
			"pbrMetallicRoughness":{
				"metallicFactor":0
			}
		},
		{
			"doubleSided":true,
			"name":"MI_RoundTiles",
			"pbrMetallicRoughness":{
				"metallicFactor":0
			}
		}
	],
	"meshes":[
		{
			"name":"Cube.020",
			"primitives":[
				{
					"attributes":{
						"POSITION":0,
						"NORMAL":1,
						"TEXCOORD_0":2,
						"TEXCOORD_1":3
					},
					"indices":4,
					"material":0
				},
				{
					"attributes":{
						"POSITION":5,
						"NORMAL":6,
						"TEXCOORD_0":7,
						"TEXCOORD_1":8
					},
					"indices":9,
					"material":1
				}
			]
		}
	],
	"accessors":[
		{
			"bufferView":0,
			"componentType":5126,
			"count":1604,
			"max":[
				4.9567179679870605,
				5.600559711456299,
				4.856163024902344
			],
			"min":[
				-4.9567179679870605,
				-0.7799561023712158,
				-4.856163024902344
			],
			"type":"VEC3"
		},
		{
			"bufferView":1,
			"componentType":5126,
			"count":1604,
			"type":"VEC3"
		},
		{
			"bufferView":2,
			"componentType":5126,
			"count":1604,
			"type":"VEC2"
		},
		{
			"bufferView":3,
			"componentType":5126,
			"count":1604,
			"type":"VEC2"
		},
		{
			"bufferView":4,
			"componentType":5123,
			"count":2688,
			"type":"SCALAR"
		},
		{
			"bufferView":5,
			"componentType":5126,
			"count":2696,
			"max":[
				4.975997447967529,
				6.001367092132568,
				5.247446537017822
			],
			"min":[
				-4.975997447967529,
				-0.5717926621437073,
				-5.08474063873291
			],
			"type":"VEC3"
		},
		{
			"bufferView":6,
			"componentType":5126,
			"count":2696,
			"type":"VEC3"
		},
		{
			"bufferView":7,
			"componentType":5126,
			"count":2696,
			"type":"VEC2"
		},
		{
			"bufferView":8,
			"componentType":5126,
			"count":2696,
			"type":"VEC2"
		},
		{
			"bufferView":9,
			"componentType":5123,
			"count":8976,
			"type":"SCALAR"
		}
	],
	"bufferViews":[
		{
			"buffer":0,
			"byteLength":19248,
			"byteOffset":0,
			"target":34962
		},
		{
			"buffer":0,
			"byteLength":19248,
			"byteOffset":19248,
			"target":34962
		},
		{
			"buffer":0,
			"byteLength":12832,
			"byteOffset":38496,
			"target":34962
		},
		{
			"buffer":0,
			"byteLength":12832,
			"byteOffset":51328,
			"target":34962
		},
		{
			"buffer":0,
			"byteLength":5376,
			"byteOffset":64160,
			"target":34963
		},
		{
			"buffer":0,
			"byteLength":32352,
			"byteOffset":69536,
			"target":34962
		},
		{
			"buffer":0,
			"byteLength":32352,
			"byteOffset":101888,
			"target":34962
		},
		{
			"buffer":0,
			"byteLength":21568,
			"byteOffset":134240,
			"target":34962
		},
		{
			"buffer":0,
			"byteLength":21568,
			"byteOffset":155808,
			"target":34962
		},
		{
			"buffer":0,
			"byteLength":17952,
			"byteOffset":177376,
			"target":34963
		}
	],
	"buffers":[
		{
			"byteLength":195328,
			"uri":"Roof_RoundTiles_8x8.bin"
		}
	]
}
