{
	"asset":{
		"generator":"Khronos glTF Blender I/O v5.1.20",
		"version":"2.0"
	},
	"scene":0,
	"scenes":[
		{
			"name":"Scene",
			"nodes":[
				0
			]
		}
	],
	"nodes":[
		{
			"mesh":0,
			"name":"Roof_Wooden_2x1_R"
		}
	],
	"materials":[
		{
			"doubleSided":true,
			"name":"MI_WoodTrim",
			"pbrMetallicRoughness":{
				"metallicFactor":0
			}
		},
		{
			"doubleSided":true,
			"name":"MI_WoodTrim_Wear",
			"pbrMetallicRoughness":{
				"metallicFactor":0
			}
		}
	],
	"meshes":[
		{
			"name":"Cube.055",
			"primitives":[
				{
					"attributes":{
						"POSITION":0,
						"NORMAL":1,
						"TEXCOORD_0":2,
						"TEXCOORD_1":3
					},
					"indices":4,
					"material":0
				},
				{
					"attributes":{
						"POSITION":5,
						"NORMAL":6,
						"TEXCOORD_0":7,
						"TEXCOORD_1":8
					},
					"indices":9,
					"material":1
				}
			]
		}
	],
	"accessors":[
		{
			"bufferView":0,
			"componentType":5126,
			"count":56,
			"max":[
				1.1289291381835938,
				1.0871591567993164,
				1.1612662076950073
			],
			"min":[
				-1,
				-0.14222341775894165,
				-0.04117286205291748
			],
			"type":"VEC3"
		},
		{
			"bufferView":1,
			"componentType":5126,
			"count":56,
			"type":"VEC3"
		},
		{
			"bufferView":2,
			"componentType":5126,
			"count":56,
			"type":"VEC2"
		},
		{
			"bufferView":3,
			"componentType":5126,
			"count":56,
			"type":"VEC2"
		},
		{
			"bufferView":4,
			"componentType":5123,
			"count":90,
			"type":"SCALAR"
		},
		{
			"bufferView":5,
			"componentType":5126,
			"count":256,
			"max":[
				1.0054757595062256,
				1.0871591567993164,
				1.5191494226455688
			],
			"min":[
				-0.9964578151702881,
				-0.1611957550048828,
				-0.04117286205291748
			],
			"type":"VEC3"
		},
		{
			"bufferView":6,
			"componentType":5126,
			"count":256,
			"type":"VEC3"
		},
		{
			"bufferView":7,
			"componentType":5126,
			"count":256,
			"type":"VEC2"
		},
		{
			"bufferView":8,
			"componentType":5126,
			"count":256,
			"type":"VEC2"
		},
		{
			"bufferView":9,
			"componentType":5123,
			"count":384,
			"type":"SCALAR"
		}
	],
	"bufferViews":[
		{
			"buffer":0,
			"byteLength":672,
			"byteOffset":0,
			"target":34962
		},
		{
			"buffer":0,
			"byteLength":672,
			"byteOffset":672,
			"target":34962
		},
		{
			"buffer":0,
			"byteLength":448,
			"byteOffset":1344,
			"target":34962
		},
		{
			"buffer":0,
			"byteLength":448,
			"byteOffset":1792,
			"target":34962
		},
		{
			"buffer":0,
			"byteLength":180,
			"byteOffset":2240,
			"target":34963
		},
		{
			"buffer":0,
			"byteLength":3072,
			"byteOffset":2420,
			"target":34962
		},
		{
			"buffer":0,
			"byteLength":3072,
			"byteOffset":5492,
			"target":34962
		},
		{
			"buffer":0,
			"byteLength":2048,
			"byteOffset":8564,
			"target":34962
		},
		{
			"buffer":0,
			"byteLength":2048,
			"byteOffset":10612,
			"target":34962
		},
		{
			"buffer":0,
			"byteLength":768,
			"byteOffset":12660,
			"target":34963
		}
	],
	"buffers":[
		{
			"byteLength":13428,
			"uri":"Roof_Wooden_2x1_R.bin"
		}
	]
}
