{
	"asset":{
		"generator":"Khronos glTF Blender I/O v5.1.20",
		"version":"2.0"
	},
	"scene":0,
	"scenes":[
		{
			"name":"Scene",
			"nodes":[
				0
			]
		}
	],
	"nodes":[
		{
			"mesh":0,
			"name":"Roof_Wooden_2x1"
		}
	],
	"materials":[
		{
			"doubleSided":true,
			"name":"MI_WoodTrim",
			"pbrMetallicRoughness":{
				"metallicFactor":0
			}
		},
		{
			"doubleSided":true,
			"name":"MI_WoodTrim_Wear",
			"pbrMetallicRoughness":{
				"metallicFactor":0
			}
		}
	],
	"meshes":[
		{
			"name":"Cube.019",
			"primitives":[
				{
					"attributes":{
						"POSITION":0,
						"NORMAL":1,
						"TEXCOORD_0":2,
						"TEXCOORD_1":3
					},
					"indices":4,
					"material":0
				},
				{
					"attributes":{
						"POSITION":5,
						"NORMAL":6,
						"TEXCOORD_0":7,
						"TEXCOORD_1":8
					},
					"indices":9,
					"material":1
				}
			]
		}
	],
	"accessors":[
		{
			"bufferView":0,
			"componentType":5126,
			"count":72,
			"max":[
				1.1289291381835938,
				1.0871591567993164,
				1.1612662076950073
			],
			"min":[
				-1.1289291381835938,
				-0.14222341775894165,
				-0.04117286205291748
			],
			"type":"VEC3"
		},
		{
			"bufferView":1,
			"componentType":5126,
			"count":72,
			"type":"VEC3"
		},
		{
			"bufferView":2,
			"componentType":5126,
			"count":72,
			"type":"VEC2"
		},
		{
			"bufferView":3,
			"componentType":5126,
			"count":72,
			"type":"VEC2"
		},
		{
			"bufferView":4,
			"componentType":5123,
			"count":114,
			"type":"SCALAR"
		},
		{
			"bufferView":5,
			"componentType":5126,
			"count":372,
			"max":[
				1.0024120807647705,
				1.0871591567993164,
				1.5191494226455688
			],
			"min":[
				-1.0054757595062256,
				-0.1611957550048828,
				-0.04117286205291748
			],
			"type":"VEC3"
		},
		{
			"bufferView":6,
			"componentType":5126,
			"count":372,
			"type":"VEC3"
		},
		{
			"bufferView":7,
			"componentType":5126,
			"count":372,
			"type":"VEC2"
		},
		{
			"bufferView":8,
			"componentType":5126,
			"count":372,
			"type":"VEC2"
		},
		{
			"bufferView":9,
			"componentType":5123,
			"count":558,
			"type":"SCALAR"
		}
	],
	"bufferViews":[
		{
			"buffer":0,
			"byteLength":864,
			"byteOffset":0,
			"target":34962
		},
		{
			"buffer":0,
			"byteLength":864,
			"byteOffset":864,
			"target":34962
		},
		{
			"buffer":0,
			"byteLength":576,
			"byteOffset":1728,
			"target":34962
		},
		{
			"buffer":0,
			"byteLength":576,
			"byteOffset":2304,
			"target":34962
		},
		{
			"buffer":0,
			"byteLength":228,
			"byteOffset":2880,
			"target":34963
		},
		{
			"buffer":0,
			"byteLength":4464,
			"byteOffset":3108,
			"target":34962
		},
		{
			"buffer":0,
			"byteLength":4464,
			"byteOffset":7572,
			"target":34962
		},
		{
			"buffer":0,
			"byteLength":2976,
			"byteOffset":12036,
			"target":34962
		},
		{
			"buffer":0,
			"byteLength":2976,
			"byteOffset":15012,
			"target":34962
		},
		{
			"buffer":0,
			"byteLength":1116,
			"byteOffset":17988,
			"target":34963
		}
	],
	"buffers":[
		{
			"byteLength":19104,
			"uri":"Roof_Wooden_2x1.bin"
		}
	]
}
