{
	"asset":{
		"generator":"Khronos glTF Blender I/O v5.1.20",
		"version":"2.0"
	},
	"scene":0,
	"scenes":[
		{
			"name":"Scene",
			"nodes":[
				0
			]
		}
	],
	"nodes":[
		{
			"mesh":0,
			"name":"Roof_RoundTiles_4x4"
		}
	],
	"materials":[
		{
			"doubleSided":true,
			"name":"MI_WoodTrim",
			"pbrMetallicRoughness":{
				"metallicFactor":0
			}
		},
		{
			"doubleSided":true,
			"name":"MI_RoundTiles",
			"pbrMetallicRoughness":{
				"metallicFactor":0
			}
		}
	],
	"meshes":[
		{
			"name":"Cube.110",
			"primitives":[
				{
					"attributes":{
						"POSITION":0,
						"NORMAL":1,
						"TEXCOORD_0":2,
						"TEXCOORD_1":3
					},
					"indices":4,
					"material":0
				},
				{
					"attributes":{
						"POSITION":5,
						"NORMAL":6,
						"TEXCOORD_0":7,
						"TEXCOORD_1":8
					},
					"indices":9,
					"material":1
				}
			]
		}
	],
	"accessors":[
		{
			"bufferView":0,
			"componentType":5126,
			"count":1176,
			"max":[
				2.5676212310791016,
				3.200705051422119,
				2.7454771995544434
			],
			"min":[
				-2.5676212310791016,
				-0.5157185792922974,
				-2.73990797996521
			],
			"type":"VEC3"
		},
		{
			"bufferView":1,
			"componentType":5126,
			"count":1176,
			"type":"VEC3"
		},
		{
			"bufferView":2,
			"componentType":5126,
			"count":1176,
			"type":"VEC2"
		},
		{
			"bufferView":3,
			"componentType":5126,
			"count":1176,
			"type":"VEC2"
		},
		{
			"bufferView":4,
			"componentType":5123,
			"count":2160,
			"type":"SCALAR"
		},
		{
			"bufferView":5,
			"componentType":5126,
			"count":1204,
			"max":[
				2.756538152694702,
				3.7336742877960205,
				2.8215668201446533
			],
			"min":[
				-2.756538152694702,
				-0.3878333568572998,
				-2.7018470764160156
			],
			"type":"VEC3"
		},
		{
			"bufferView":6,
			"componentType":5126,
			"count":1204,
			"type":"VEC3"
		},
		{
			"bufferView":7,
			"componentType":5126,
			"count":1204,
			"type":"VEC2"
		},
		{
			"bufferView":8,
			"componentType":5126,
			"count":1204,
			"type":"VEC2"
		},
		{
			"bufferView":9,
			"componentType":5123,
			"count":3828,
			"type":"SCALAR"
		}
	],
	"bufferViews":[
		{
			"buffer":0,
			"byteLength":14112,
			"byteOffset":0,
			"target":34962
		},
		{
			"buffer":0,
			"byteLength":14112,
			"byteOffset":14112,
			"target":34962
		},
		{
			"buffer":0,
			"byteLength":9408,
			"byteOffset":28224,
			"target":34962
		},
		{
			"buffer":0,
			"byteLength":9408,
			"byteOffset":37632,
			"target":34962
		},
		{
			"buffer":0,
			"byteLength":4320,
			"byteOffset":47040,
			"target":34963
		},
		{
			"buffer":0,
			"byteLength":14448,
			"byteOffset":51360,
			"target":34962
		},
		{
			"buffer":0,
			"byteLength":14448,
			"byteOffset":65808,
			"target":34962
		},
		{
			"buffer":0,
			"byteLength":9632,
			"byteOffset":80256,
			"target":34962
		},
		{
			"buffer":0,
			"byteLength":9632,
			"byteOffset":89888,
			"target":34962
		},
		{
			"buffer":0,
			"byteLength":7656,
			"byteOffset":99520,
			"target":34963
		}
	],
	"buffers":[
		{
			"byteLength":107176,
			"uri":"Roof_RoundTiles_4x4.bin"
		}
	]
}
