{
	"asset":{
		"generator":"Khronos glTF Blender I/O v5.1.20",
		"version":"2.0"
	},
	"scene":0,
	"scenes":[
		{
			"name":"Scene",
			"nodes":[
				0
			]
		}
	],
	"nodes":[
		{
			"mesh":0,
			"name":"Roof_RoundTiles_6x12"
		}
	],
	"materials":[
		{
			"doubleSided":true,
			"name":"MI_WoodTrim",
			"pbrMetallicRoughness":{
				"metallicFactor":0
			}
		},
		{
			"doubleSided":true,
			"name":"MI_RoundTiles",
			"pbrMetallicRoughness":{
				"metallicFactor":0
			}
		}
	],
	"meshes":[
		{
			"name":"Cube.021",
			"primitives":[
				{
					"attributes":{
						"POSITION":0,
						"NORMAL":1,
						"TEXCOORD_0":2,
						"TEXCOORD_1":3
					},
					"indices":4,
					"material":0
				},
				{
					"attributes":{
						"POSITION":5,
						"NORMAL":6,
						"TEXCOORD_0":7,
						"TEXCOORD_1":8
					},
					"indices":9,
					"material":1
				}
			]
		}
	],
	"accessors":[
		{
			"bufferView":0,
			"componentType":5126,
			"count":1640,
			"max":[
				3.958951234817505,
				4.342607498168945,
				6.828753471374512
			],
			"min":[
				-3.958951234817505,
				-0.7821269035339355,
				-6.828753471374512
			],
			"type":"VEC3"
		},
		{
			"bufferView":1,
			"componentType":5126,
			"count":1640,
			"type":"VEC3"
		},
		{
			"bufferView":2,
			"componentType":5126,
			"count":1640,
			"type":"VEC2"
		},
		{
			"bufferView":3,
			"componentType":5126,
			"count":1640,
			"type":"VEC2"
		},
		{
			"bufferView":4,
			"componentType":5123,
			"count":2712,
			"type":"SCALAR"
		},
		{
			"bufferView":5,
			"componentType":5126,
			"count":3384,
			"max":[
				4.124891757965088,
				4.890044689178467,
				6.670813083648682
			],
			"min":[
				-4.124891757965088,
				-0.6384454965591431,
				-6.7070417404174805
			],
			"type":"VEC3"
		},
		{
			"bufferView":6,
			"componentType":5126,
			"count":3384,
			"type":"VEC3"
		},
		{
			"bufferView":7,
			"componentType":5126,
			"count":3384,
			"type":"VEC2"
		},
		{
			"bufferView":8,
			"componentType":5126,
			"count":3384,
			"type":"VEC2"
		},
		{
			"bufferView":9,
			"componentType":5123,
			"count":11544,
			"type":"SCALAR"
		}
	],
	"bufferViews":[
		{
			"buffer":0,
			"byteLength":19680,
			"byteOffset":0,
			"target":34962
		},
		{
			"buffer":0,
			"byteLength":19680,
			"byteOffset":19680,
			"target":34962
		},
		{
			"buffer":0,
			"byteLength":13120,
			"byteOffset":39360,
			"target":34962
		},
		{
			"buffer":0,
			"byteLength":13120,
			"byteOffset":52480,
			"target":34962
		},
		{
			"buffer":0,
			"byteLength":5424,
			"byteOffset":65600,
			"target":34963
		},
		{
			"buffer":0,
			"byteLength":40608,
			"byteOffset":71024,
			"target":34962
		},
		{
			"buffer":0,
			"byteLength":40608,
			"byteOffset":111632,
			"target":34962
		},
		{
			"buffer":0,
			"byteLength":27072,
			"byteOffset":152240,
			"target":34962
		},
		{
			"buffer":0,
			"byteLength":27072,
			"byteOffset":179312,
			"target":34962
		},
		{
			"buffer":0,
			"byteLength":23088,
			"byteOffset":206384,
			"target":34963
		}
	],
	"buffers":[
		{
			"byteLength":229472,
			"uri":"Roof_RoundTiles_6x12.bin"
		}
	]
}
