{
	"asset":{
		"generator":"Khronos glTF Blender I/O v5.1.20",
		"version":"2.0"
	},
	"scene":0,
	"scenes":[
		{
			"name":"Scene",
			"nodes":[
				0
			]
		}
	],
	"nodes":[
		{
			"mesh":0,
			"name":"Roof_RoundTiles_8x12"
		}
	],
	"materials":[
		{
			"doubleSided":true,
			"name":"MI_WoodTrim",
			"pbrMetallicRoughness":{
				"metallicFactor":0
			}
		},
		{
			"doubleSided":true,
			"name":"MI_RoundTiles",
			"pbrMetallicRoughness":{
				"metallicFactor":0
			}
		}
	],
	"meshes":[
		{
			"name":"Cube.047",
			"primitives":[
				{
					"attributes":{
						"POSITION":0,
						"NORMAL":1,
						"TEXCOORD_0":2,
						"TEXCOORD_1":3
					},
					"indices":4,
					"material":0
				},
				{
					"attributes":{
						"POSITION":5,
						"NORMAL":6,
						"TEXCOORD_0":7,
						"TEXCOORD_1":8
					},
					"indices":9,
					"material":1
				}
			]
		}
	],
	"accessors":[
		{
			"bufferView":0,
			"componentType":5126,
			"count":1632,
			"max":[
				4.9567179679870605,
				5.600559711456299,
				6.971505165100098
			],
			"min":[
				-4.9567179679870605,
				-0.7799561023712158,
				-6.918720722198486
			],
			"type":"VEC3"
		},
		{
			"bufferView":1,
			"componentType":5126,
			"count":1632,
			"type":"VEC3"
		},
		{
			"bufferView":2,
			"componentType":5126,
			"count":1632,
			"type":"VEC2"
		},
		{
			"bufferView":3,
			"componentType":5126,
			"count":1632,
			"type":"VEC2"
		},
		{
			"bufferView":4,
			"componentType":5123,
			"count":2712,
			"type":"SCALAR"
		},
		{
			"bufferView":5,
			"componentType":5126,
			"count":5372,
			"max":[
				4.975997447967529,
				6.001367092132568,
				7.015059471130371
			],
			"min":[
				-4.975997447967529,
				-0.5717926621437073,
				-7.117128372192383
			],
			"type":"VEC3"
		},
		{
			"bufferView":6,
			"componentType":5126,
			"count":5372,
			"type":"VEC3"
		},
		{
			"bufferView":7,
			"componentType":5126,
			"count":5372,
			"type":"VEC2"
		},
		{
			"bufferView":8,
			"componentType":5126,
			"count":5372,
			"type":"VEC2"
		},
		{
			"bufferView":9,
			"componentType":5123,
			"count":16356,
			"type":"SCALAR"
		}
	],
	"bufferViews":[
		{
			"buffer":0,
			"byteLength":19584,
			"byteOffset":0,
			"target":34962
		},
		{
			"buffer":0,
			"byteLength":19584,
			"byteOffset":19584,
			"target":34962
		},
		{
			"buffer":0,
			"byteLength":13056,
			"byteOffset":39168,
			"target":34962
		},
		{
			"buffer":0,
			"byteLength":13056,
			"byteOffset":52224,
			"target":34962
		},
		{
			"buffer":0,
			"byteLength":5424,
			"byteOffset":65280,
			"target":34963
		},
		{
			"buffer":0,
			"byteLength":64464,
			"byteOffset":70704,
			"target":34962
		},
		{
			"buffer":0,
			"byteLength":64464,
			"byteOffset":135168,
			"target":34962
		},
		{
			"buffer":0,
			"byteLength":42976,
			"byteOffset":199632,
			"target":34962
		},
		{
			"buffer":0,
			"byteLength":42976,
			"byteOffset":242608,
			"target":34962
		},
		{
			"buffer":0,
			"byteLength":32712,
			"byteOffset":285584,
			"target":34963
		}
	],
	"buffers":[
		{
			"byteLength":318296,
			"uri":"Roof_RoundTiles_8x12.bin"
		}
	]
}
