{
	"asset":{
		"generator":"Khronos glTF Blender I/O v5.1.20",
		"version":"2.0"
	},
	"scene":0,
	"scenes":[
		{
			"name":"Scene",
			"nodes":[
				0
			]
		}
	],
	"nodes":[
		{
			"mesh":0,
			"name":"Stair_Interior_Rails"
		}
	],
	"materials":[
		{
			"doubleSided":true,
			"name":"MI_WoodTrim",
			"pbrMetallicRoughness":{
				"metallicFactor":0
			}
		}
	],
	"meshes":[
		{
			"name":"Cube.073",
			"primitives":[
				{
					"attributes":{
						"POSITION":0,
						"NORMAL":1,
						"TEXCOORD_0":2
					},
					"indices":3,
					"material":0
				}
			]
		}
	],
	"accessors":[
		{
			"bufferView":0,
			"componentType":5126,
			"count":3640,
			"max":[
				0.8583554625511169,
				3.9530751705169678,
				0.24431560933589935
			],
			"min":[
				-0.8583554625511169,
				0.02250903844833374,
				-4.31890869140625
			],
			"type":"VEC3"
		},
		{
			"bufferView":1,
			"componentType":5126,
			"count":3640,
			"type":"VEC3"
		},
		{
			"bufferView":2,
			"componentType":5126,
			"count":3640,
			"type":"VEC2"
		},
		{
			"bufferView":3,
			"componentType":5123,
			"count":9432,
			"type":"SCALAR"
		}
	],
	"bufferViews":[
		{
			"buffer":0,
			"byteLength":43680,
			"byteOffset":0,
			"target":34962
		},
		{
			"buffer":0,
			"byteLength":43680,
			"byteOffset":43680,
			"target":34962
		},
		{
			"buffer":0,
			"byteLength":29120,
			"byteOffset":87360,
			"target":34962
		},
		{
			"buffer":0,
			"byteLength":18864,
			"byteOffset":116480,
			"target":34963
		}
	],
	"buffers":[
		{
			"byteLength":135344,
			"uri":"Stair_Interior_Rails.bin"
		}
	]
}
