{"asset":{"generator":"Khronos glTF Blender I/O v5.1.20","version":"2.0"},"scene":0,"scenes":[{"name":"Scene","nodes":[0]}],"nodes":[{"mesh":0,"name":"TwistedTree_5"}],"materials":[{"doubleSided":true,"name":"Bark_TwistedTree","pbrMetallicRoughness":{"metallicFactor":0,"baseColorTexture":{"index":0}},"normalTexture":{"index":1}},{"alphaMode":"BLEND","doubleSided":true,"name":"Leaves_TwistedTree","pbrMetallicRoughness":{"metallicFactor":0,"baseColorTexture":{"index":2}}}],"meshes":[{"name":"tree.042","primitives":[{"attributes":{"POSITION":0,"NORMAL":1,"TEXCOORD_0":2,"COLOR_0":3,"COLOR_1":4},"indices":5,"material":0},{"attributes":{"POSITION":6,"NORMAL":7,"TEXCOORD_0":8,"COLOR_0":9,"COLOR_1":10},"indices":11,"material":1}]}],"accessors":[{"bufferView":0,"componentType":5126,"count":4751,"max":[4.437458515167236,14.353582382202148,1.6412839889526367],"min":[-2.2728946208953857,-0.20147468149662018,-5.161355018615723],"type":"VEC3"},{"bufferView":1,"componentType":5126,"count":4751,"type":"VEC3"},{"bufferView":2,"componentType":5126,"count":4751,"type":"VEC2"},{"bufferView":3,"componentType":5121,"count":4751,"normalized":true,"type":"VEC4"},{"bufferView":4,"componentType":5123,"count":4751,"normalized":true,"type":"VEC4"},{"bufferView":5,"componentType":5123,"count":21246,"type":"SCALAR"},{"bufferView":6,"componentType":5126,"count":6044,"max":[5.748274803161621,15.460700988769531,3.0480315685272217],"min":[-3.7464373111724854,5.0873823165893555,-6.338996887207031],"type":"VEC3"},{"bufferView":7,"componentType":5126,"count":6044,"type":"VEC3"},{"bufferView":8,"componentType":5126,"count":6044,"type":"VEC2"},{"bufferView":9,"componentType":5121,"count":6044,"normalized":true,"type":"VEC4"},{"bufferView":10,"componentType":5123,"count":6044,"normalized":true,"type":"VEC4"},{"bufferView":11,"componentType":5123,"count":9066,"type":"SCALAR"}],"bufferViews":[{"buffer":0,"byteLength":57012,"byteOffset":0,"target":34962},{"buffer":0,"byteLength":57012,"byteOffset":57012,"target":34962},{"buffer":0,"byteLength":38008,"byteOffset":114024,"target":34962},{"buffer":0,"byteLength":19004,"byteOffset":152032,"target":34962},{"buffer":0,"byteLength":38008,"byteOffset":171036,"target":34962},{"buffer":0,"byteLength":42492,"byteOffset":209044,"target":34963},{"buffer":0,"byteLength":72528,"byteOffset":251536,"target":34962},{"buffer":0,"byteLength":72528,"byteOffset":324064,"target":34962},{"buffer":0,"byteLength":48352,"byteOffset":396592,"target":34962},{"buffer":0,"byteLength":24176,"byteOffset":444944,"target":34962},{"buffer":0,"byteLength":48352,"byteOffset":469120,"target":34962},{"buffer":0,"byteLength":18132,"byteOffset":517472,"target":34963}],"buffers":[{"byteLength":535604,"uri":"TwistedTree_5.bin"}],"images":[{"uri":"Bark_TwistedTree.png"},{"uri":"Bark_TwistedTree_Normal.png"},{"uri":"Leaves_TwistedTree.png"}],"textures":[{"sampler":0,"source":0},{"sampler":0,"source":1},{"sampler":0,"source":2}],"samplers":[{"magFilter":9729,"minFilter":9987}]}