{"asset":{"generator":"Khronos glTF Blender I/O v5.1.20","version":"2.0"},"scene":0,"scenes":[{"name":"Scene","nodes":[0]}],"nodes":[{"mesh":0,"name":"TwistedTree_1"}],"materials":[{"doubleSided":true,"name":"Bark_TwistedTree","pbrMetallicRoughness":{"metallicFactor":0,"baseColorTexture":{"index":0}},"normalTexture":{"index":1}},{"alphaMode":"BLEND","doubleSided":true,"name":"Leaves_TwistedTree","pbrMetallicRoughness":{"metallicFactor":0,"baseColorTexture":{"index":2}}}],"meshes":[{"name":"tree.038","primitives":[{"attributes":{"POSITION":0,"NORMAL":1,"TEXCOORD_0":2,"COLOR_0":3,"COLOR_1":4},"indices":5,"material":0},{"attributes":{"POSITION":6,"NORMAL":7,"TEXCOORD_0":8,"COLOR_0":9,"COLOR_1":10},"indices":11,"material":1}]}],"accessors":[{"bufferView":0,"componentType":5126,"count":4695,"max":[9.911966323852539,15.281858444213867,3.4427638053894043],"min":[-1.498000979423523,-0.20147469639778137,-5.117466926574707],"type":"VEC3"},{"bufferView":1,"componentType":5126,"count":4695,"type":"VEC3"},{"bufferView":2,"componentType":5126,"count":4695,"type":"VEC2"},{"bufferView":3,"componentType":5121,"count":4695,"normalized":true,"type":"VEC4"},{"bufferView":4,"componentType":5123,"count":4695,"normalized":true,"type":"VEC4"},{"bufferView":5,"componentType":5123,"count":21636,"type":"SCALAR"},{"bufferView":6,"componentType":5126,"count":4704,"max":[11.341513633728027,16.52402114868164,4.822585105895996],"min":[-2.174241065979004,2.4449024200439453,-6.726779460906982],"type":"VEC3"},{"bufferView":7,"componentType":5126,"count":4704,"type":"VEC3"},{"bufferView":8,"componentType":5126,"count":4704,"type":"VEC2"},{"bufferView":9,"componentType":5121,"count":4704,"normalized":true,"type":"VEC4"},{"bufferView":10,"componentType":5123,"count":4704,"normalized":true,"type":"VEC4"},{"bufferView":11,"componentType":5123,"count":7056,"type":"SCALAR"}],"bufferViews":[{"buffer":0,"byteLength":56340,"byteOffset":0,"target":34962},{"buffer":0,"byteLength":56340,"byteOffset":56340,"target":34962},{"buffer":0,"byteLength":37560,"byteOffset":112680,"target":34962},{"buffer":0,"byteLength":18780,"byteOffset":150240,"target":34962},{"buffer":0,"byteLength":37560,"byteOffset":169020,"target":34962},{"buffer":0,"byteLength":43272,"byteOffset":206580,"target":34963},{"buffer":0,"byteLength":56448,"byteOffset":249852,"target":34962},{"buffer":0,"byteLength":56448,"byteOffset":306300,"target":34962},{"buffer":0,"byteLength":37632,"byteOffset":362748,"target":34962},{"buffer":0,"byteLength":18816,"byteOffset":400380,"target":34962},{"buffer":0,"byteLength":37632,"byteOffset":419196,"target":34962},{"buffer":0,"byteLength":14112,"byteOffset":456828,"target":34963}],"buffers":[{"byteLength":470940,"uri":"TwistedTree_1.bin"}],"images":[{"uri":"Bark_TwistedTree.png"},{"uri":"Bark_TwistedTree_Normal.png"},{"uri":"Leaves_TwistedTree.png"}],"textures":[{"sampler":0,"source":0},{"sampler":0,"source":1},{"sampler":0,"source":2}],"samplers":[{"magFilter":9729,"minFilter":9987}]}