{"asset":{"generator":"Khronos glTF Blender I/O v5.1.20","version":"2.0"},"scene":0,"scenes":[{"name":"Scene","nodes":[0]}],"nodes":[{"mesh":0,"name":"TwistedTree_3"}],"materials":[{"doubleSided":true,"name":"Bark_TwistedTree","pbrMetallicRoughness":{"metallicFactor":0,"baseColorTexture":{"index":0}},"normalTexture":{"index":1}},{"alphaMode":"BLEND","doubleSided":true,"name":"Leaves_TwistedTree","pbrMetallicRoughness":{"metallicFactor":0,"baseColorTexture":{"index":2}}}],"meshes":[{"name":"tree.040","primitives":[{"attributes":{"POSITION":0,"NORMAL":1,"TEXCOORD_0":2,"COLOR_0":3,"COLOR_1":4},"indices":5,"material":0},{"attributes":{"POSITION":6,"NORMAL":7,"TEXCOORD_0":8,"COLOR_0":9,"COLOR_1":10},"indices":11,"material":1}]}],"accessors":[{"bufferView":0,"componentType":5126,"count":4784,"max":[5.440822124481201,14.757431983947754,3.588460922241211],"min":[-3.039580821990967,-0.20147468149662018,-5.2718305587768555],"type":"VEC3"},{"bufferView":1,"componentType":5126,"count":4784,"type":"VEC3"},{"bufferView":2,"componentType":5126,"count":4784,"type":"VEC2"},{"bufferView":3,"componentType":5121,"count":4784,"normalized":true,"type":"VEC4"},{"bufferView":4,"componentType":5123,"count":4784,"normalized":true,"type":"VEC4"},{"bufferView":5,"componentType":5123,"count":22167,"type":"SCALAR"},{"bufferView":6,"componentType":5126,"count":5400,"max":[6.867476463317871,15.871066093444824,4.985528945922852],"min":[-4.49001932144165,1.901405930519104,-6.520090103149414],"type":"VEC3"},{"bufferView":7,"componentType":5126,"count":5400,"type":"VEC3"},{"bufferView":8,"componentType":5126,"count":5400,"type":"VEC2"},{"bufferView":9,"componentType":5121,"count":5400,"normalized":true,"type":"VEC4"},{"bufferView":10,"componentType":5123,"count":5400,"normalized":true,"type":"VEC4"},{"bufferView":11,"componentType":5123,"count":8100,"type":"SCALAR"}],"bufferViews":[{"buffer":0,"byteLength":57408,"byteOffset":0,"target":34962},{"buffer":0,"byteLength":57408,"byteOffset":57408,"target":34962},{"buffer":0,"byteLength":38272,"byteOffset":114816,"target":34962},{"buffer":0,"byteLength":19136,"byteOffset":153088,"target":34962},{"buffer":0,"byteLength":38272,"byteOffset":172224,"target":34962},{"buffer":0,"byteLength":44334,"byteOffset":210496,"target":34963},{"buffer":0,"byteLength":64800,"byteOffset":254832,"target":34962},{"buffer":0,"byteLength":64800,"byteOffset":319632,"target":34962},{"buffer":0,"byteLength":43200,"byteOffset":384432,"target":34962},{"buffer":0,"byteLength":21600,"byteOffset":427632,"target":34962},{"buffer":0,"byteLength":43200,"byteOffset":449232,"target":34962},{"buffer":0,"byteLength":16200,"byteOffset":492432,"target":34963}],"buffers":[{"byteLength":508632,"uri":"TwistedTree_3.bin"}],"images":[{"uri":"Bark_TwistedTree.png"},{"uri":"Bark_TwistedTree_Normal.png"},{"uri":"Leaves_TwistedTree.png"}],"textures":[{"sampler":0,"source":0},{"sampler":0,"source":1},{"sampler":0,"source":2}],"samplers":[{"magFilter":9729,"minFilter":9987}]}