{
	"asset":{
		"generator":"Khronos glTF Blender I/O v5.1.20",
		"version":"2.0"
	},
	"scene":0,
	"scenes":[
		{
			"name":"Scene",
			"nodes":[
				0
			]
		}
	],
	"nodes":[
		{
			"mesh":0,
			"name":"TwistedTree_4"
		}
	],
	"materials":[
		{
			"doubleSided":true,
			"name":"Bark_TwistedTree",
			"pbrMetallicRoughness":{
				"metallicFactor":0
			}
		},
		{
			"alphaMode":"BLEND",
			"doubleSided":true,
			"name":"Leaves_TwistedTree",
			"pbrMetallicRoughness":{
				"metallicFactor":0
			}
		}
	],
	"meshes":[
		{
			"name":"tree.041",
			"primitives":[
				{
					"attributes":{
						"POSITION":0,
						"NORMAL":1,
						"TEXCOORD_0":2,
						"COLOR_0":3,
						"COLOR_1":4
					},
					"indices":5,
					"material":0
				},
				{
					"attributes":{
						"POSITION":6,
						"NORMAL":7,
						"TEXCOORD_0":8,
						"COLOR_0":9,
						"COLOR_1":10
					},
					"indices":11,
					"material":1
				}
			]
		}
	],
	"accessors":[
		{
			"bufferView":0,
			"componentType":5126,
			"count":4562,
			"max":[
				4.80446195602417,
				17.352516174316406,
				2.777181386947632
			],
			"min":[
				-2.732177972793579,
				-0.20147468149662018,
				-6.009294033050537
			],
			"type":"VEC3"
		},
		{
			"bufferView":1,
			"componentType":5126,
			"count":4562,
			"type":"VEC3"
		},
		{
			"bufferView":2,
			"componentType":5126,
			"count":4562,
			"type":"VEC2"
		},
		{
			"bufferView":3,
			"componentType":5121,
			"count":4562,
			"normalized":true,
			"type":"VEC4"
		},
		{
			"bufferView":4,
			"componentType":5123,
			"count":4562,
			"normalized":true,
			"type":"VEC4"
		},
		{
			"bufferView":5,
			"componentType":5123,
			"count":20700,
			"type":"SCALAR"
		},
		{
			"bufferView":6,
			"componentType":5126,
			"count":5400,
			"max":[
				6.053491592407227,
				18.536760330200195,
				4.150291442871094
			],
			"min":[
				-4.327320098876953,
				2.1321682929992676,
				-7.142794609069824
			],
			"type":"VEC3"
		},
		{
			"bufferView":7,
			"componentType":5126,
			"count":5400,
			"type":"VEC3"
		},
		{
			"bufferView":8,
			"componentType":5126,
			"count":5400,
			"type":"VEC2"
		},
		{
			"bufferView":9,
			"componentType":5121,
			"count":5400,
			"normalized":true,
			"type":"VEC4"
		},
		{
			"bufferView":10,
			"componentType":5123,
			"count":5400,
			"normalized":true,
			"type":"VEC4"
		},
		{
			"bufferView":11,
			"componentType":5123,
			"count":8100,
			"type":"SCALAR"
		}
	],
	"bufferViews":[
		{
			"buffer":0,
			"byteLength":54744,
			"byteOffset":0,
			"target":34962
		},
		{
			"buffer":0,
			"byteLength":54744,
			"byteOffset":54744,
			"target":34962
		},
		{
			"buffer":0,
			"byteLength":36496,
			"byteOffset":109488,
			"target":34962
		},
		{
			"buffer":0,
			"byteLength":18248,
			"byteOffset":145984,
			"target":34962
		},
		{
			"buffer":0,
			"byteLength":36496,
			"byteOffset":164232,
			"target":34962
		},
		{
			"buffer":0,
			"byteLength":41400,
			"byteOffset":200728,
			"target":34963
		},
		{
			"buffer":0,
			"byteLength":64800,
			"byteOffset":242128,
			"target":34962
		},
		{
			"buffer":0,
			"byteLength":64800,
			"byteOffset":306928,
			"target":34962
		},
		{
			"buffer":0,
			"byteLength":43200,
			"byteOffset":371728,
			"target":34962
		},
		{
			"buffer":0,
			"byteLength":21600,
			"byteOffset":414928,
			"target":34962
		},
		{
			"buffer":0,
			"byteLength":43200,
			"byteOffset":436528,
			"target":34962
		},
		{
			"buffer":0,
			"byteLength":16200,
			"byteOffset":479728,
			"target":34963
		}
	],
	"buffers":[
		{
			"byteLength":495928,
			"uri":"TwistedTree_4.bin"
		}
	]
}
