{"asset":{"generator":"Khronos glTF Blender I/O v5.1.20","version":"2.0"},"scene":0,"scenes":[{"name":"Scene","nodes":[0]}],"nodes":[{"mesh":0,"name":"TwistedTree_2"}],"materials":[{"doubleSided":true,"name":"Bark_TwistedTree","pbrMetallicRoughness":{"metallicFactor":0,"baseColorTexture":{"index":0}},"normalTexture":{"index":1}},{"alphaMode":"BLEND","doubleSided":true,"name":"Leaves_TwistedTree","pbrMetallicRoughness":{"metallicFactor":0,"baseColorTexture":{"index":2}}}],"meshes":[{"name":"tree.039","primitives":[{"attributes":{"POSITION":0,"NORMAL":1,"TEXCOORD_0":2,"COLOR_0":3,"COLOR_1":4},"indices":5,"material":0},{"attributes":{"POSITION":6,"NORMAL":7,"TEXCOORD_0":8,"COLOR_0":9,"COLOR_1":10},"indices":11,"material":1}]}],"accessors":[{"bufferView":0,"componentType":5126,"count":4358,"max":[3.0595297813415527,17.562589645385742,2.152212142944336],"min":[-5.446475505828857,-0.20147468149662018,-4.334892272949219],"type":"VEC3"},{"bufferView":1,"componentType":5126,"count":4358,"type":"VEC3"},{"bufferView":2,"componentType":5126,"count":4358,"type":"VEC2"},{"bufferView":3,"componentType":5121,"count":4358,"normalized":true,"type":"VEC4"},{"bufferView":4,"componentType":5123,"count":4358,"normalized":true,"type":"VEC4"},{"bufferView":5,"componentType":5123,"count":20370,"type":"SCALAR"},{"bufferView":6,"componentType":5126,"count":4688,"max":[3.942902088165283,18.74772834777832,3.661869764328003],"min":[-6.619970321655273,4.4927978515625,-5.540718078613281],"type":"VEC3"},{"bufferView":7,"componentType":5126,"count":4688,"type":"VEC3"},{"bufferView":8,"componentType":5126,"count":4688,"type":"VEC2"},{"bufferView":9,"componentType":5121,"count":4688,"normalized":true,"type":"VEC4"},{"bufferView":10,"componentType":5123,"count":4688,"normalized":true,"type":"VEC4"},{"bufferView":11,"componentType":5123,"count":7032,"type":"SCALAR"}],"bufferViews":[{"buffer":0,"byteLength":52296,"byteOffset":0,"target":34962},{"buffer":0,"byteLength":52296,"byteOffset":52296,"target":34962},{"buffer":0,"byteLength":34864,"byteOffset":104592,"target":34962},{"buffer":0,"byteLength":17432,"byteOffset":139456,"target":34962},{"buffer":0,"byteLength":34864,"byteOffset":156888,"target":34962},{"buffer":0,"byteLength":40740,"byteOffset":191752,"target":34963},{"buffer":0,"byteLength":56256,"byteOffset":232492,"target":34962},{"buffer":0,"byteLength":56256,"byteOffset":288748,"target":34962},{"buffer":0,"byteLength":37504,"byteOffset":345004,"target":34962},{"buffer":0,"byteLength":18752,"byteOffset":382508,"target":34962},{"buffer":0,"byteLength":37504,"byteOffset":401260,"target":34962},{"buffer":0,"byteLength":14064,"byteOffset":438764,"target":34963}],"buffers":[{"byteLength":452828,"uri":"TwistedTree_2.bin"}],"images":[{"uri":"Bark_TwistedTree.png"},{"uri":"Bark_TwistedTree_Normal.png"},{"uri":"Leaves_TwistedTree.png"}],"textures":[{"sampler":0,"source":0},{"sampler":0,"source":1},{"sampler":0,"source":2}],"samplers":[{"magFilter":9729,"minFilter":9987}]}