{
	"asset":{
		"generator":"Khronos glTF Blender I/O v5.1.20",
		"version":"2.0"
	},
	"scene":0,
	"scenes":[
		{
			"name":"Scene",
			"nodes":[
				0
			]
		}
	],
	"nodes":[
		{
			"mesh":0,
			"name":"Wall_Plaster_Door_RoundInset"
		}
	],
	"materials":[
		{
			"doubleSided":true,
			"name":"MI_WoodTrim",
			"pbrMetallicRoughness":{
				"metallicFactor":0
			}
		},
		{
			"doubleSided":true,
			"name":"MI_Plaster",
			"pbrMetallicRoughness":{
				"metallicFactor":0,
				"roughnessFactor":0.5
			}
		},
		{
			"doubleSided":true,
			"name":"MI_RockTrim",
			"pbrMetallicRoughness":{
				"metallicFactor":0,
				"roughnessFactor":0.5
			}
		}
	],
	"meshes":[
		{
			"name":"Cube.038",
			"primitives":[
				{
					"attributes":{
						"POSITION":0,
						"NORMAL":1,
						"TEXCOORD_0":2,
						"TEXCOORD_1":3
					},
					"indices":4,
					"material":0
				},
				{
					"attributes":{
						"POSITION":5,
						"NORMAL":6,
						"TEXCOORD_0":7,
						"TEXCOORD_1":8
					},
					"indices":9,
					"material":1
				},
				{
					"attributes":{
						"POSITION":10,
						"NORMAL":11,
						"TEXCOORD_0":12,
						"TEXCOORD_1":13
					},
					"indices":14,
					"material":2
				}
			]
		}
	],
	"accessors":[
		{
			"bufferView":0,
			"componentType":5126,
			"count":68,
			"max":[
				1,
				3.1226887702941895,
				0.09244640171527863
			],
			"min":[
				-1.0000001192092896,
				2.877309799194336,
				-0.3140353262424469
			],
			"type":"VEC3"
		},
		{
			"bufferView":1,
			"componentType":5126,
			"count":68,
			"type":"VEC3"
		},
		{
			"bufferView":2,
			"componentType":5126,
			"count":68,
			"type":"VEC2"
		},
		{
			"bufferView":3,
			"componentType":5126,
			"count":68,
			"type":"VEC2"
		},
		{
			"bufferView":4,
			"componentType":5123,
			"count":156,
			"type":"SCALAR"
		},
		{
			"bufferView":5,
			"componentType":5126,
			"count":121,
			"max":[
				1,
				3,
				1.3113417196564114e-07
			],
			"min":[
				-1,
				0,
				-0.9999999403953552
			],
			"type":"VEC3"
		},
		{
			"bufferView":6,
			"componentType":5126,
			"count":121,
			"type":"VEC3"
		},
		{
			"bufferView":7,
			"componentType":5126,
			"count":121,
			"type":"VEC2"
		},
		{
			"bufferView":8,
			"componentType":5126,
			"count":121,
			"type":"VEC2"
		},
		{
			"bufferView":9,
			"componentType":5123,
			"count":348,
			"type":"SCALAR"
		},
		{
			"bufferView":10,
			"componentType":5126,
			"count":20,
			"max":[
				1,
				0.9100615382194519,
				4.3711395392165286e-08
			],
			"min":[
				-1,
				-1.1278182812197925e-16,
				-1
			],
			"type":"VEC3"
		},
		{
			"bufferView":11,
			"componentType":5126,
			"count":20,
			"type":"VEC3"
		},
		{
			"bufferView":12,
			"componentType":5126,
			"count":20,
			"type":"VEC2"
		},
		{
			"bufferView":13,
			"componentType":5126,
			"count":20,
			"type":"VEC2"
		},
		{
			"bufferView":14,
			"componentType":5123,
			"count":36,
			"type":"SCALAR"
		}
	],
	"bufferViews":[
		{
			"buffer":0,
			"byteLength":816,
			"byteOffset":0,
			"target":34962
		},
		{
			"buffer":0,
			"byteLength":816,
			"byteOffset":816,
			"target":34962
		},
		{
			"buffer":0,
			"byteLength":544,
			"byteOffset":1632,
			"target":34962
		},
		{
			"buffer":0,
			"byteLength":544,
			"byteOffset":2176,
			"target":34962
		},
		{
			"buffer":0,
			"byteLength":312,
			"byteOffset":2720,
			"target":34963
		},
		{
			"buffer":0,
			"byteLength":1452,
			"byteOffset":3032,
			"target":34962
		},
		{
			"buffer":0,
			"byteLength":1452,
			"byteOffset":4484,
			"target":34962
		},
		{
			"buffer":0,
			"byteLength":968,
			"byteOffset":5936,
			"target":34962
		},
		{
			"buffer":0,
			"byteLength":968,
			"byteOffset":6904,
			"target":34962
		},
		{
			"buffer":0,
			"byteLength":696,
			"byteOffset":7872,
			"target":34963
		},
		{
			"buffer":0,
			"byteLength":240,
			"byteOffset":8568,
			"target":34962
		},
		{
			"buffer":0,
			"byteLength":240,
			"byteOffset":8808,
			"target":34962
		},
		{
			"buffer":0,
			"byteLength":160,
			"byteOffset":9048,
			"target":34962
		},
		{
			"buffer":0,
			"byteLength":160,
			"byteOffset":9208,
			"target":34962
		},
		{
			"buffer":0,
			"byteLength":72,
			"byteOffset":9368,
			"target":34963
		}
	],
	"buffers":[
		{
			"byteLength":9440,
			"uri":"Wall_Plaster_Door_RoundInset.bin"
		}
	]
}
