{
	"asset":{
		"generator":"Khronos glTF Blender I/O v5.1.20",
		"version":"2.0"
	},
	"scene":0,
	"scenes":[
		{
			"name":"Scene",
			"nodes":[
				0
			]
		}
	],
	"nodes":[
		{
			"mesh":0,
			"name":"Wall_UnevenBrick_Straight"
		}
	],
	"materials":[
		{
			"doubleSided":true,
			"name":"MI_WoodTrim",
			"pbrMetallicRoughness":{
				"metallicFactor":0
			}
		},
		{
			"doubleSided":true,
			"name":"MI_Plaster",
			"pbrMetallicRoughness":{
				"metallicFactor":0,
				"roughnessFactor":0.5
			}
		},
		{
			"doubleSided":true,
			"name":"MI_UnevenBrick",
			"pbrMetallicRoughness":{
				"metallicFactor":0
			}
		}
	],
	"meshes":[
		{
			"name":"Cube.059",
			"primitives":[
				{
					"attributes":{
						"POSITION":0,
						"NORMAL":1,
						"TEXCOORD_0":2
					},
					"indices":3,
					"material":0
				},
				{
					"attributes":{
						"POSITION":4,
						"NORMAL":5,
						"TEXCOORD_0":6
					},
					"indices":7,
					"material":1
				},
				{
					"attributes":{
						"POSITION":8,
						"NORMAL":9,
						"TEXCOORD_0":10
					},
					"indices":11,
					"material":2
				}
			]
		}
	],
	"accessors":[
		{
			"bufferView":0,
			"componentType":5126,
			"count":64,
			"max":[
				1,
				3.1226887702941895,
				0.09244640171527863
			],
			"min":[
				-1.0000001192092896,
				2.877309799194336,
				-0.3140353262424469
			],
			"type":"VEC3"
		},
		{
			"bufferView":1,
			"componentType":5126,
			"count":64,
			"type":"VEC3"
		},
		{
			"bufferView":2,
			"componentType":5126,
			"count":64,
			"type":"VEC2"
		},
		{
			"bufferView":3,
			"componentType":5123,
			"count":150,
			"type":"SCALAR"
		},
		{
			"bufferView":4,
			"componentType":5126,
			"count":4,
			"max":[
				1,
				3,
				-0.19999991357326508
			],
			"min":[
				-1,
				0,
				-0.2000000923871994
			],
			"type":"VEC3"
		},
		{
			"bufferView":5,
			"componentType":5126,
			"count":4,
			"type":"VEC3"
		},
		{
			"bufferView":6,
			"componentType":5126,
			"count":4,
			"type":"VEC2"
		},
		{
			"bufferView":7,
			"componentType":5123,
			"count":6,
			"type":"SCALAR"
		},
		{
			"bufferView":8,
			"componentType":5126,
			"count":8,
			"max":[
				1,
				3,
				1.3113415775478643e-07
			],
			"min":[
				-1,
				0,
				0
			],
			"type":"VEC3"
		},
		{
			"bufferView":9,
			"componentType":5126,
			"count":8,
			"type":"VEC3"
		},
		{
			"bufferView":10,
			"componentType":5126,
			"count":8,
			"type":"VEC2"
		},
		{
			"bufferView":11,
			"componentType":5123,
			"count":12,
			"type":"SCALAR"
		}
	],
	"bufferViews":[
		{
			"buffer":0,
			"byteLength":768,
			"byteOffset":0,
			"target":34962
		},
		{
			"buffer":0,
			"byteLength":768,
			"byteOffset":768,
			"target":34962
		},
		{
			"buffer":0,
			"byteLength":512,
			"byteOffset":1536,
			"target":34962
		},
		{
			"buffer":0,
			"byteLength":300,
			"byteOffset":2048,
			"target":34963
		},
		{
			"buffer":0,
			"byteLength":48,
			"byteOffset":2348,
			"target":34962
		},
		{
			"buffer":0,
			"byteLength":48,
			"byteOffset":2396,
			"target":34962
		},
		{
			"buffer":0,
			"byteLength":32,
			"byteOffset":2444,
			"target":34962
		},
		{
			"buffer":0,
			"byteLength":12,
			"byteOffset":2476,
			"target":34963
		},
		{
			"buffer":0,
			"byteLength":96,
			"byteOffset":2488,
			"target":34962
		},
		{
			"buffer":0,
			"byteLength":96,
			"byteOffset":2584,
			"target":34962
		},
		{
			"buffer":0,
			"byteLength":64,
			"byteOffset":2680,
			"target":34962
		},
		{
			"buffer":0,
			"byteLength":24,
			"byteOffset":2744,
			"target":34963
		}
	],
	"buffers":[
		{
			"byteLength":2768,
			"uri":"Wall_UnevenBrick_Straight.bin"
		}
	]
}
